<svg xmlns="http://www.w3.org/2000/svg" xmlns:xlink="http://www.w3.org/1999/xlink" width="973" zoomAndPan="magnify" viewBox="0 0 729.75 531.000006" height="708" preserveAspectRatio="xMidYMid meet" version="1.0"><defs><g/><clipPath id="3665f11716"><path d="M 0.5625 0 L 728.9375 0 L 728.9375 530 L 0.5625 530 Z M 0.5625 0 " clip-rule="nonzero"/></clipPath></defs><g clip-path="url(#3665f11716)"><path fill="#ffffff" d="M 0.5625 0 L 728.9375 0 L 728.9375 530 L 0.5625 530 Z M 0.5625 0 " fill-opacity="1" fill-rule="nonzero"/><path fill="#ffffff" d="M 0.5625 0 L 728.9375 0 L 728.9375 530 L 0.5625 530 Z M 0.5625 0 " fill-opacity="1" fill-rule="nonzero"/></g><g fill="#1966cd" fill-opacity="1"><g transform="translate(27.061181, 235.057344)"><g><path d="M 63.890625 -81.40625 L 96.3125 -81.40625 L 67.09375 -47.921875 L 96.90625 0 L 66.03125 0 L 49.109375 -29.8125 L 34.90625 -18.21875 L 34.90625 0 L 8.75 0 L 8.75 -81.40625 L 34.90625 -81.40625 L 34.90625 -46.625 Z M 63.890625 -81.40625 "/></g></g></g><g fill="#1966cd" fill-opacity="1"><g transform="translate(118.880077, 235.057344)"><g><path d="M 7.921875 -69.8125 L 7.921875 -85.78125 L 31.46875 -85.78125 L 31.46875 -69.8125 Z M 7.921875 0 L 7.921875 -62.484375 L 31.46875 -62.484375 L 31.46875 0 Z M 7.921875 0 "/></g></g></g><g fill="#1966cd" fill-opacity="1"><g transform="translate(151.536964, 235.057344)"><g><path d="M 50.171875 -63.890625 C 57.429688 -63.890625 62.875 -61.878906 66.5 -57.859375 C 70.125 -53.835938 71.9375 -48.039062 71.9375 -40.46875 L 71.9375 0 L 48.390625 0 L 48.390625 -37.625 C 48.390625 -40.3125 47.695312 -42.460938 46.3125 -44.078125 C 44.9375 -45.691406 42.988281 -46.5 40.46875 -46.5 C 37.550781 -46.5 35.179688 -45.550781 33.359375 -43.65625 C 31.546875 -41.769531 30.640625 -39.445312 30.640625 -36.6875 L 30.640625 0 L 7.09375 0 L 7.09375 -62.484375 L 26.390625 -62.484375 L 27.921875 -53.015625 C 30.367188 -56.328125 33.582031 -58.96875 37.5625 -60.9375 C 41.550781 -62.90625 45.753906 -63.890625 50.171875 -63.890625 Z M 50.171875 -63.890625 "/></g></g></g><g fill="#1966cd" fill-opacity="1"><g transform="translate(223.714077, 235.057344)"><g><path d="M 77.390625 -74.1875 C 77.390625 -69.375 76.1875 -65.664062 73.78125 -63.0625 C 71.375 -60.457031 67.765625 -58.523438 62.953125 -57.265625 C 65.234375 -55.535156 67.023438 -53.503906 68.328125 -51.171875 C 69.628906 -48.847656 70.28125 -46.382812 70.28125 -43.78125 C 70.28125 -37.15625 67.773438 -32.144531 62.765625 -28.75 C 57.765625 -25.363281 51.515625 -23.671875 44.015625 -23.671875 L 35.03125 -23.671875 C 30.0625 -23.671875 27.578125 -22.523438 27.578125 -20.234375 C 27.578125 -19.128906 28.128906 -18.238281 29.234375 -17.5625 C 30.335938 -16.894531 32.269531 -16.5625 35.03125 -16.5625 L 56.328125 -16.5625 C 63.265625 -16.5625 68.507812 -14.75 72.0625 -11.125 C 75.613281 -7.5 77.390625 -2.644531 77.390625 3.4375 C 77.390625 7.925781 76.203125 11.785156 73.828125 15.015625 C 71.460938 18.253906 68.269531 20.703125 64.25 22.359375 C 60.226562 24.015625 55.851562 24.84375 51.125 24.84375 L 16.328125 24.84375 C 13.484375 24.84375 10.859375 24.171875 8.453125 22.828125 C 6.046875 21.492188 4.132812 19.660156 2.71875 17.328125 C 1.300781 15.003906 0.59375 12.421875 0.59375 9.578125 C 0.59375 6.503906 1.535156 3.722656 3.421875 1.234375 C 5.316406 -1.242188 7.6875 -3.113281 10.53125 -4.375 C 8.632812 -5.71875 7.132812 -7.332031 6.03125 -9.21875 C 4.925781 -11.113281 4.375 -13.164062 4.375 -15.375 C 4.375 -18.457031 5.515625 -21.238281 7.796875 -23.71875 C 10.085938 -26.207031 12.929688 -27.882812 16.328125 -28.75 C 13.253906 -30.726562 10.804688 -33 8.984375 -35.5625 C 7.171875 -38.125 6.265625 -40.820312 6.265625 -43.65625 C 6.265625 -50.914062 9.203125 -56.101562 15.078125 -59.21875 C 20.960938 -62.332031 28.753906 -63.890625 38.453125 -63.890625 C 42.710938 -63.890625 46.144531 -63.65625 48.75 -63.1875 C 52.613281 -65.632812 55.117188 -67.863281 56.265625 -69.875 C 57.410156 -71.882812 57.984375 -73.320312 57.984375 -74.1875 Z M 38.21875 -51.59375 C 35.613281 -51.59375 33.484375 -50.921875 31.828125 -49.578125 C 30.171875 -48.234375 29.34375 -46.300781 29.34375 -43.78125 C 29.34375 -41.175781 30.109375 -39.222656 31.640625 -37.921875 C 33.179688 -36.617188 35.375 -35.96875 38.21875 -35.96875 C 41.0625 -35.96875 43.289062 -36.617188 44.90625 -37.921875 C 46.519531 -39.222656 47.328125 -41.175781 47.328125 -43.78125 C 47.328125 -46.382812 46.519531 -48.335938 44.90625 -49.640625 C 43.289062 -50.941406 41.0625 -51.59375 38.21875 -51.59375 Z M 29.109375 0 C 27.296875 0 25.816406 0.488281 24.671875 1.46875 C 23.523438 2.457031 22.953125 3.863281 22.953125 5.6875 C 22.953125 7.5 23.539062 8.957031 24.71875 10.0625 C 25.90625 11.164062 27.367188 11.71875 29.109375 11.71875 L 47.5625 11.71875 C 49.300781 11.71875 50.78125 11.179688 52 10.109375 C 53.226562 9.046875 53.84375 7.609375 53.84375 5.796875 C 53.84375 3.984375 53.25 2.5625 52.0625 1.53125 C 50.882812 0.507812 49.382812 0 47.5625 0 Z M 29.109375 0 "/></g></g></g><g fill="#1966cd" fill-opacity="1"><g transform="translate(295.89119, 235.057344)"><g><path d="M 36.796875 -63.890625 C 45.160156 -63.890625 52.238281 -62.253906 58.03125 -58.984375 C 63.832031 -55.710938 66.734375 -50.644531 66.734375 -43.78125 L 44.84375 -43.78125 C 44.84375 -46.070312 43.816406 -47.691406 41.765625 -48.640625 C 40.347656 -49.421875 38.570312 -49.8125 36.4375 -49.8125 C 30.757812 -49.8125 27.921875 -48.472656 27.921875 -45.796875 C 27.921875 -44.296875 28.90625 -43.226562 30.875 -42.59375 C 32.851562 -41.96875 36.09375 -41.300781 40.59375 -40.59375 C 46.113281 -39.800781 50.726562 -38.867188 54.4375 -37.796875 C 58.144531 -36.734375 61.378906 -34.84375 64.140625 -32.125 C 66.898438 -29.40625 68.28125 -25.597656 68.28125 -20.703125 C 68.28125 -12.734375 65.300781 -7.050781 59.34375 -3.65625 C 53.382812 -0.269531 45.59375 1.421875 35.96875 1.421875 C 30.445312 1.421875 25.238281 0.65625 20.34375 -0.875 C 15.457031 -2.414062 11.472656 -4.800781 8.390625 -8.03125 C 5.316406 -11.269531 3.78125 -15.378906 3.78125 -20.359375 L 25.671875 -20.359375 L 25.671875 -19.875 C 25.753906 -17.195312 26.878906 -15.320312 29.046875 -14.25 C 31.210938 -13.1875 33.519531 -12.65625 35.96875 -12.65625 C 42.519531 -12.65625 45.796875 -14.195312 45.796875 -17.28125 C 45.796875 -18.851562 44.769531 -19.992188 42.71875 -20.703125 C 40.664062 -21.410156 37.3125 -22.160156 32.65625 -22.953125 C 27.050781 -23.898438 22.453125 -24.925781 18.859375 -26.03125 C 15.273438 -27.132812 12.140625 -29.003906 9.453125 -31.640625 C 6.773438 -34.285156 5.4375 -37.976562 5.4375 -42.71875 C 5.4375 -50.363281 8.335938 -55.800781 14.140625 -59.03125 C 19.941406 -62.269531 27.492188 -63.890625 36.796875 -63.890625 Z M 36.796875 -63.890625 "/></g></g></g><g fill="#1966cd" fill-opacity="1"><g transform="translate(361.442155, 235.057344)"><g><path d="M 65.796875 0 L 56.09375 -34.78125 L 55.609375 -34.78125 L 45.796875 0 L 22.84375 0 L 0 -62.484375 L 25.328125 -62.484375 L 34.78125 -25.5625 L 35.609375 -25.5625 L 45.4375 -62.484375 L 68.859375 -62.484375 L 78.328125 -25.5625 L 79.15625 -25.5625 L 88.75 -62.484375 L 111.703125 -62.484375 L 88.75 0 Z M 65.796875 0 "/></g></g></g><g fill="#1966cd" fill-opacity="1"><g transform="translate(466.395036, 235.057344)"><g><path d="M 39.40625 -63.890625 C 50.363281 -63.890625 58.976562 -61.109375 65.25 -55.546875 C 71.53125 -49.992188 74.671875 -41.890625 74.671875 -31.234375 C 74.671875 -20.585938 71.53125 -12.484375 65.25 -6.921875 C 58.976562 -1.359375 50.363281 1.421875 39.40625 1.421875 C 28.4375 1.421875 19.835938 -1.335938 13.609375 -6.859375 C 7.378906 -12.378906 4.265625 -20.503906 4.265625 -31.234375 C 4.265625 -41.960938 7.378906 -50.085938 13.609375 -55.609375 C 19.835938 -61.128906 28.4375 -63.890625 39.40625 -63.890625 Z M 39.40625 -47.921875 C 31.675781 -47.921875 27.8125 -43.460938 27.8125 -34.546875 L 27.8125 -27.8125 C 27.8125 -18.96875 31.675781 -14.546875 39.40625 -14.546875 C 47.21875 -14.546875 51.125 -18.96875 51.125 -27.8125 L 51.125 -34.546875 C 51.125 -43.460938 47.21875 -47.921875 39.40625 -47.921875 Z M 39.40625 -47.921875 "/></g></g></g><g fill="#1966cd" fill-opacity="1"><g transform="translate(538.572126, 235.057344)"><g><path d="M 39.40625 -63.890625 C 50.363281 -63.890625 58.976562 -61.109375 65.25 -55.546875 C 71.53125 -49.992188 74.671875 -41.890625 74.671875 -31.234375 C 74.671875 -20.585938 71.53125 -12.484375 65.25 -6.921875 C 58.976562 -1.359375 50.363281 1.421875 39.40625 1.421875 C 28.4375 1.421875 19.835938 -1.335938 13.609375 -6.859375 C 7.378906 -12.378906 4.265625 -20.503906 4.265625 -31.234375 C 4.265625 -41.960938 7.378906 -50.085938 13.609375 -55.609375 C 19.835938 -61.128906 28.4375 -63.890625 39.40625 -63.890625 Z M 39.40625 -47.921875 C 31.675781 -47.921875 27.8125 -43.460938 27.8125 -34.546875 L 27.8125 -27.8125 C 27.8125 -18.96875 31.675781 -14.546875 39.40625 -14.546875 C 47.21875 -14.546875 51.125 -18.96875 51.125 -27.8125 L 51.125 -34.546875 C 51.125 -43.460938 47.21875 -47.921875 39.40625 -47.921875 Z M 39.40625 -47.921875 "/></g></g></g><g fill="#1966cd" fill-opacity="1"><g transform="translate(610.749215, 235.057344)"><g><path d="M 52.53125 0 L 50.53125 -8.875 C 45.945312 -2.007812 39.316406 1.421875 30.640625 1.421875 C 22.203125 1.421875 15.695312 -1.335938 11.125 -6.859375 C 6.550781 -12.378906 4.265625 -20.546875 4.265625 -31.359375 C 4.265625 -42.085938 6.550781 -50.191406 11.125 -55.671875 C 15.695312 -61.148438 22.203125 -63.890625 30.640625 -63.890625 C 37.828125 -63.890625 43.664062 -61.484375 48.15625 -56.671875 L 48.15625 -85.78125 L 71.703125 -85.78125 L 71.703125 0 Z M 37.984375 -46.5 C 31.203125 -46.5 27.8125 -42.4375 27.8125 -34.3125 L 27.8125 -28.046875 C 27.8125 -19.992188 31.203125 -15.96875 37.984375 -15.96875 C 41.453125 -15.96875 44.050781 -17.191406 45.78125 -19.640625 C 47.519531 -22.085938 48.390625 -25.285156 48.390625 -29.234375 L 48.390625 -33.125 C 48.390625 -37.070312 47.519531 -40.285156 45.78125 -42.765625 C 44.050781 -45.253906 41.453125 -46.5 37.984375 -46.5 Z M 37.984375 -46.5 "/></g></g></g><g fill="#1966cd" fill-opacity="1"><g transform="translate(27.061181, 372.049351)"><g><path d="M 42.953125 -82.828125 C 53.367188 -82.828125 61.925781 -80.71875 68.625 -76.5 C 75.332031 -72.28125 78.765625 -66.03125 78.921875 -57.75 L 78.921875 -56.328125 L 54.4375 -56.328125 L 54.4375 -56.796875 C 54.4375 -59.160156 53.566406 -61.128906 51.828125 -62.703125 C 50.085938 -64.285156 47.445312 -65.078125 43.90625 -65.078125 C 40.425781 -65.078125 37.757812 -64.5625 35.90625 -63.53125 C 34.050781 -62.507812 33.125 -61.25 33.125 -59.75 C 33.125 -57.625 34.382812 -56.046875 36.90625 -55.015625 C 39.4375 -53.992188 43.503906 -52.929688 49.109375 -51.828125 C 55.648438 -50.484375 61.03125 -49.082031 65.25 -47.625 C 69.476562 -46.164062 73.171875 -43.78125 76.328125 -40.46875 C 79.484375 -37.15625 81.097656 -32.660156 81.171875 -26.984375 C 81.171875 -17.359375 77.914062 -10.21875 71.40625 -5.5625 C 64.90625 -0.90625 56.207031 1.421875 45.3125 1.421875 C 32.613281 1.421875 22.734375 -0.707031 15.671875 -4.96875 C 8.617188 -9.226562 5.09375 -16.765625 5.09375 -27.578125 L 29.8125 -27.578125 C 29.8125 -23.472656 30.875 -20.726562 33 -19.34375 C 35.132812 -17.96875 38.453125 -17.28125 42.953125 -17.28125 C 46.265625 -17.28125 49.003906 -17.632812 51.171875 -18.34375 C 53.347656 -19.050781 54.4375 -20.507812 54.4375 -22.71875 C 54.4375 -24.6875 53.234375 -26.164062 50.828125 -27.15625 C 48.421875 -28.144531 44.492188 -29.191406 39.046875 -30.296875 C 32.421875 -31.710938 26.9375 -33.1875 22.59375 -34.71875 C 18.257812 -36.257812 14.472656 -38.804688 11.234375 -42.359375 C 8.003906 -45.910156 6.390625 -50.722656 6.390625 -56.796875 C 6.390625 -65.710938 9.835938 -72.28125 16.734375 -76.5 C 23.640625 -80.71875 32.378906 -82.828125 42.953125 -82.828125 Z M 42.953125 -82.828125 "/></g></g></g><g fill="#1966cd" fill-opacity="1"><g transform="translate(105.746109, 372.049351)"><g><path d="M 39.40625 -63.890625 C 49.65625 -63.890625 57.957031 -61.703125 64.3125 -57.328125 C 70.664062 -52.953125 73.84375 -46.265625 73.84375 -37.265625 L 51 -37.265625 C 51 -44.367188 47.132812 -47.921875 39.40625 -47.921875 C 31.675781 -47.921875 27.8125 -43.460938 27.8125 -34.546875 L 27.8125 -27.8125 C 27.8125 -18.96875 31.832031 -14.546875 39.875 -14.546875 C 47.925781 -14.546875 51.953125 -18.175781 51.953125 -25.4375 L 73.84375 -25.4375 C 73.84375 -16.363281 70.664062 -9.617188 64.3125 -5.203125 C 57.957031 -0.785156 49.65625 1.421875 39.40625 1.421875 C 28.4375 1.421875 19.835938 -1.335938 13.609375 -6.859375 C 7.378906 -12.378906 4.265625 -20.503906 4.265625 -31.234375 C 4.265625 -41.960938 7.378906 -50.085938 13.609375 -55.609375 C 19.835938 -61.128906 28.4375 -63.890625 39.40625 -63.890625 Z M 39.40625 -63.890625 "/></g></g></g><g fill="#1966cd" fill-opacity="1"><g transform="translate(177.923216, 372.049351)"><g><path d="M 39.40625 -63.890625 C 50.363281 -63.890625 58.976562 -61.109375 65.25 -55.546875 C 71.53125 -49.992188 74.671875 -41.890625 74.671875 -31.234375 C 74.671875 -20.585938 71.53125 -12.484375 65.25 -6.921875 C 58.976562 -1.359375 50.363281 1.421875 39.40625 1.421875 C 28.4375 1.421875 19.835938 -1.335938 13.609375 -6.859375 C 7.378906 -12.378906 4.265625 -20.503906 4.265625 -31.234375 C 4.265625 -41.960938 7.378906 -50.085938 13.609375 -55.609375 C 19.835938 -61.128906 28.4375 -63.890625 39.40625 -63.890625 Z M 39.40625 -47.921875 C 31.675781 -47.921875 27.8125 -43.460938 27.8125 -34.546875 L 27.8125 -27.8125 C 27.8125 -18.96875 31.675781 -14.546875 39.40625 -14.546875 C 47.21875 -14.546875 51.125 -18.96875 51.125 -27.8125 L 51.125 -34.546875 C 51.125 -43.460938 47.21875 -47.921875 39.40625 -47.921875 Z M 39.40625 -47.921875 "/></g></g></g><g fill="#1966cd" fill-opacity="1"><g transform="translate(250.100329, 372.049351)"><g><path d="M 52.421875 0 L 50.875 -9.46875 C 48.4375 -6.070312 45.222656 -3.40625 41.234375 -1.46875 C 37.253906 0.457031 33.054688 1.421875 28.640625 1.421875 C 21.378906 1.421875 15.929688 -0.585938 12.296875 -4.609375 C 8.671875 -8.640625 6.859375 -14.441406 6.859375 -22.015625 L 6.859375 -62.484375 L 30.40625 -62.484375 L 30.40625 -24.84375 C 30.40625 -22.164062 31.09375 -20.015625 32.46875 -18.390625 C 33.851562 -16.773438 35.8125 -15.96875 38.34375 -15.96875 C 41.257812 -15.96875 43.625 -16.914062 45.4375 -18.8125 C 47.25 -20.707031 48.15625 -23.035156 48.15625 -25.796875 L 48.15625 -62.484375 L 71.703125 -62.484375 L 71.703125 0 Z M 52.421875 0 "/></g></g></g><g fill="#1966cd" fill-opacity="1"><g transform="translate(322.277441, 372.049351)"><g><path d="M 48.75 -62.484375 L 48.75 -46.5 L 35.5 -46.5 L 35.5 -22.71875 C 35.5 -19.875 35.972656 -17.800781 36.921875 -16.5 C 37.867188 -15.195312 39.601562 -14.546875 42.125 -14.546875 L 48.75 -14.546875 L 48.75 -0.703125 C 46.851562 -0.078125 44.40625 0.429688 41.40625 0.828125 C 38.414062 1.222656 35.816406 1.421875 33.609375 1.421875 C 26.660156 1.421875 21.3125 0.160156 17.5625 -2.359375 C 13.820312 -4.890625 11.953125 -9.191406 11.953125 -15.265625 L 11.953125 -46.5 L 3.1875 -46.5 L 3.1875 -62.484375 L 12.890625 -62.484375 L 17.984375 -81.40625 L 35.5 -81.40625 L 35.5 -62.484375 Z M 48.75 -62.484375 "/></g></g></g><g fill="#1966cd" fill-opacity="1"><g transform="translate(368.068303, 372.049351)"><g><path d="M 36.796875 -63.890625 C 45.160156 -63.890625 52.238281 -62.253906 58.03125 -58.984375 C 63.832031 -55.710938 66.734375 -50.644531 66.734375 -43.78125 L 44.84375 -43.78125 C 44.84375 -46.070312 43.816406 -47.691406 41.765625 -48.640625 C 40.347656 -49.421875 38.570312 -49.8125 36.4375 -49.8125 C 30.757812 -49.8125 27.921875 -48.472656 27.921875 -45.796875 C 27.921875 -44.296875 28.90625 -43.226562 30.875 -42.59375 C 32.851562 -41.96875 36.09375 -41.300781 40.59375 -40.59375 C 46.113281 -39.800781 50.726562 -38.867188 54.4375 -37.796875 C 58.144531 -36.734375 61.378906 -34.84375 64.140625 -32.125 C 66.898438 -29.40625 68.28125 -25.597656 68.28125 -20.703125 C 68.28125 -12.734375 65.300781 -7.050781 59.34375 -3.65625 C 53.382812 -0.269531 45.59375 1.421875 35.96875 1.421875 C 30.445312 1.421875 25.238281 0.65625 20.34375 -0.875 C 15.457031 -2.414062 11.472656 -4.800781 8.390625 -8.03125 C 5.316406 -11.269531 3.78125 -15.378906 3.78125 -20.359375 L 25.671875 -20.359375 L 25.671875 -19.875 C 25.753906 -17.195312 26.878906 -15.320312 29.046875 -14.25 C 31.210938 -13.1875 33.519531 -12.65625 35.96875 -12.65625 C 42.519531 -12.65625 45.796875 -14.195312 45.796875 -17.28125 C 45.796875 -18.851562 44.769531 -19.992188 42.71875 -20.703125 C 40.664062 -21.410156 37.3125 -22.160156 32.65625 -22.953125 C 27.050781 -23.898438 22.453125 -24.925781 18.859375 -26.03125 C 15.273438 -27.132812 12.140625 -29.003906 9.453125 -31.640625 C 6.773438 -34.285156 5.4375 -37.976562 5.4375 -42.71875 C 5.4375 -50.363281 8.335938 -55.800781 14.140625 -59.03125 C 19.941406 -62.269531 27.492188 -63.890625 36.796875 -63.890625 Z M 36.796875 -63.890625 "/></g></g></g></svg>