<?xml version="1.0" standalone="no"?>
<!DOCTYPE svg PUBLIC "-//W3C//DTD SVG 20010904//EN"
 "http://www.w3.org/TR/2001/REC-SVG-20010904/DTD/svg10.dtd">
<svg version="1.0" xmlns="http://www.w3.org/2000/svg"
 width="407.000000pt" height="402.000000pt" viewBox="0 0 407.000000 402.000000"
 preserveAspectRatio="xMidYMid meet">
<metadata>
Created by potrace 1.14, written by Peter Selinger 2001-2017
</metadata>
<g transform="translate(0.000000,402.000000) scale(0.100000,-0.100000)"
fill="#000000" stroke="none">
<path d="M2037 3956 c-50 -79 -158 -173 -273 -239 -102 -58 -109 -62 -114 -67
-3 -3 -40 -32 -83 -65 -65 -49 -120 -108 -205 -220 -19 -25 -62 -127 -83 -195
-40 -132 -32 -322 17 -437 8 -17 14 -37 14 -45 0 -7 9 -24 20 -38 l20 -25 -10
28 c-6 16 -8 32 -5 36 2 5 0 22 -5 40 -5 19 -5 31 1 31 5 0 2 14 -7 32 -11 22
-13 33 -5 36 13 4 15 32 2 32 -5 0 -11 14 -13 30 -4 26 -2 29 15 24 17 -5 19
-3 13 19 -8 32 17 56 39 37 9 -7 18 -10 22 -6 3 3 1 6 -5 6 -7 0 -12 7 -12 15
0 7 -6 18 -13 22 -31 18 -23 106 17 197 46 105 57 125 85 155 17 18 31 36 31
41 0 10 110 113 145 135 17 11 32 22 35 26 3 4 57 39 120 79 63 39 134 88 158
108 53 46 103 82 112 82 4 0 26 -18 51 -40 40 -37 186 -140 234 -166 237 -127
417 -361 426 -554 3 -45 0 -55 -14 -58 -24 -5 -21 -20 6 -24 19 -3 22 -9 21
-41 -1 -30 1 -35 12 -26 19 15 20 -41 2 -59 -10 -10 -10 -15 1 -22 12 -7 13
-11 1 -25 -7 -8 -13 -30 -12 -47 0 -17 -4 -40 -10 -51 -7 -14 -7 -22 2 -27 9
-6 9 -12 0 -30 -6 -12 -10 -24 -8 -26 4 -3 46 84 69 141 38 97 37 307 -3 420
-20 58 -70 165 -90 190 -50 66 -135 159 -170 186 -24 18 -45 36 -48 39 -7 9
-98 70 -103 70 -5 0 -108 60 -141 82 -68 46 -176 148 -206 194 l-26 42 -27
-42z M1510 3405 c0 -3 2 -5 5 -5 3 0 5 2 5 5 0 3 -2 5 -5 5 -3 0 -5 -2 -5 -5z
M2050 3268 c0 -2 -1 -60 -3 -131 -2 -115 0 -127 16 -127 15 0 17 13 17 130 0
109 -2 130 -15 130 -8 0 -15 -1 -15 -2z M1965 3040 c-3 -5 -12 -7 -20 -4 -17
7 -89 -28 -120 -57 -11 -11 -24 -20 -28 -19 -11 1 -66 -75 -83 -117 -8 -19
-19 -31 -25 -28 -5 4 -8 3 -7 -2 4 -12 -48 -84 -55 -76 -4 3 -7 -1 -7 -10 0
-9 8 -22 18 -29 11 -7 24 -23 30 -35 7 -12 18 -28 26 -35 7 -8 26 -41 42 -74
15 -32 40 -72 56 -89 56 -60 70 -137 27 -150 -10 -4 -19 -10 -19 -15 0 -5 -9
-14 -20 -20 -17 -9 -19 -8 -13 7 5 14 3 15 -7 6 -24 -22 31 -62 58 -41 6 6 12
8 12 4 0 -3 10 4 21 15 15 15 18 24 10 29 -9 5 -8 10 4 20 8 7 15 20 15 29 0
14 2 14 11 1 8 -11 12 -12 16 -3 3 9 10 10 24 3 10 -6 19 -7 19 -3 0 4 4 3 8
-2 7 -10 70 -31 125 -42 15 -3 33 -1 40 4 6 6 24 13 40 17 16 4 27 13 28 24 0
10 3 12 6 5 3 -10 10 -10 25 -2 12 6 18 7 14 1 -3 -5 2 -16 11 -23 15 -12 16
-12 10 4 -3 9 -2 17 4 17 16 0 23 -31 8 -41 -11 -7 -11 -9 2 -9 9 0 20 -11 23
-24 6 -24 43 -32 58 -11 5 6 8 5 8 -4 0 -11 3 -11 16 -1 13 12 12 16 -13 36
-15 13 -34 23 -41 24 -15 0 -30 36 -28 67 1 13 21 44 45 70 24 27 50 70 60
100 10 29 25 61 33 70 9 10 24 34 35 54 12 23 24 34 33 31 13 -5 13 -3 1 11
-7 9 -18 14 -25 10 -6 -4 -4 2 4 12 8 10 10 16 4 13 -10 -7 -49 36 -50 56 -1
39 -114 173 -134 161 -5 -3 -14 4 -20 15 -6 11 -23 23 -38 26 -15 4 -31 10
-37 14 -16 12 -65 18 -71 9 -2 -4 -12 -6 -22 -3 -9 2 2 -5 26 -16 29 -13 41
-24 36 -32 -5 -10 -4 -10 5 -2 14 13 51 7 51 -8 0 -5 4 -7 9 -3 6 3 13 -1 18
-9 4 -8 25 -24 46 -36 20 -12 37 -25 37 -29 0 -4 8 -16 19 -27 24 -26 63 -132
51 -139 -4 -3 -6 -30 -3 -60 5 -47 3 -58 -13 -71 -10 -9 -13 -13 -6 -9 17 9
15 -10 -3 -29 -9 -8 -16 -18 -15 -21 1 -21 -1 -25 -10 -20 -6 4 -9 1 -8 -6 2
-7 -4 -13 -12 -14 -8 0 -15 -6 -15 -12 0 -7 -4 -13 -9 -12 -5 0 -13 -6 -18
-15 -5 -9 -14 -14 -19 -10 -5 3 -8 0 -7 -8 2 -7 -3 -12 -9 -10 -7 1 -13 -5
-13 -13 0 -8 -5 -15 -11 -15 -5 0 -7 5 -4 10 3 6 2 10 -4 10 -6 0 -15 -9 -21
-20 -15 -27 -73 -42 -155 -38 -49 2 -69 7 -67 16 1 6 -2 12 -8 12 -5 0 -10 -6
-10 -12 -1 -7 -9 -3 -20 10 -12 15 -26 21 -37 18 -13 -4 -21 1 -28 16 -6 12
-16 23 -23 24 -7 1 -8 0 -2 -3 5 -2 10 -9 10 -15 0 -6 -6 -6 -15 2 -8 7 -12
16 -9 21 3 5 -1 9 -9 9 -8 0 -21 8 -28 18 -13 16 -13 16 6 2 19 -14 19 -14 6
2 -7 10 -17 16 -21 13 -12 -8 -33 23 -24 36 5 8 3 9 -6 4 -10 -6 -12 -4 -7 9
5 11 3 15 -5 10 -8 -5 -9 -2 -5 10 4 11 3 15 -4 10 -8 -4 -9 1 -4 16 4 14 3
20 -3 16 -5 -3 -12 4 -16 17 -9 36 -7 135 4 142 6 3 10 15 10 26 0 10 5 19 10
19 6 0 10 7 10 16 0 20 60 94 77 94 7 0 13 5 13 11 0 6 7 9 14 6 10 -4 13 -1
9 9 -3 7 1 14 7 14 26 0 109 45 105 57 -2 7 2 10 11 6 7 -3 14 -9 14 -14 0 -5
5 -9 10 -9 6 0 10 7 10 16 0 8 -4 13 -9 9 -5 -3 -12 -1 -16 5 -8 13 -32 13
-40 0z m190 -10 c3 -5 4 -10 1 -10 -3 0 -8 5 -11 10 -3 6 -4 10 -1 10 3 0 8
-4 11 -10z m-375 -115 c0 -3 -2 -5 -5 -5 -3 0 -5 2 -5 5 0 3 2 5 5 5 3 0 5 -2
5 -5z m-140 -200 c0 -3 -2 -5 -5 -5 -3 0 -5 2 -5 5 0 3 2 5 5 5 3 0 5 -2 5 -5z
m700 -220 c0 -3 -2 -5 -5 -5 -3 0 -5 2 -5 5 0 3 2 5 5 5 3 0 5 -2 5 -5z m-500
-189 c0 -2 -7 -7 -16 -10 -8 -3 -12 -2 -9 4 6 10 25 14 25 6z m-10 -31 c0 -3
-2 -5 -5 -5 -3 0 -5 2 -5 5 0 3 2 5 5 5 3 0 5 -2 5 -5z m550 0 c0 -3 -2 -5 -5
-5 -3 0 -5 2 -5 5 0 3 2 5 5 5 3 0 5 -2 5 -5z m-570 -20 c0 -3 -2 -5 -5 -5 -3
0 -5 2 -5 5 0 3 2 5 5 5 3 0 5 -2 5 -5z M2213 3033 c4 -3 10 -3 14 0 3 4 0 7
-7 7 -7 0 -10 -3 -7 -7z M2090 3009 c0 -5 5 -7 10 -4 6 3 10 8 10 11 0 2 -4 4
-10 4 -5 0 -10 -5 -10 -11z M1950 2985 c0 -3 2 -5 5 -5 3 0 5 2 5 5 0 3 -2 5
-5 5 -3 0 -5 -2 -5 -5z M1409 2958 c-12 -23 -1 -23 29 0 23 18 23 18 2 18 -12
0 -26 -8 -31 -18z M2000 2975 c0 -3 2 -5 5 -5 3 0 5 2 5 5 0 3 -2 5 -5 5 -3 0
-5 -2 -5 -5z M2698 2969 c-10 -5 -18 -8 -18 -5 0 3 -14 -8 -31 -24 -17 -15
-28 -33 -25 -39 4 -6 1 -11 -7 -11 -16 0 -54 -66 -44 -76 4 -4 7 0 7 8 0 9 8
22 17 29 11 10 14 10 9 2 -4 -7 -3 -13 2 -13 4 0 16 16 25 35 9 19 23 35 31
35 7 0 20 7 27 17 13 15 12 15 -10 4 -35 -19 -16 6 23 30 31 19 26 27 -6 8z
m-48 -44 c0 -3 -2 -5 -5 -5 -3 0 -5 2 -5 5 0 3 2 5 5 5 3 0 5 -2 5 -5z m-30
-50 c0 -3 -2 -5 -5 -5 -3 0 -5 2 -5 5 0 3 2 5 5 5 3 0 5 -2 5 -5z M1980 2960
c0 -7 3 -10 7 -7 3 4 3 10 0 14 -4 3 -7 0 -7 -7z M2151 2945 c4 -68 0 -86 -18
-77 -28 14 -133 13 -133 -1 -1 -7 -9 4 -20 23 -12 23 -19 29 -20 17 0 -14 -4
-16 -19 -7 -31 16 -32 12 -4 -16 l26 -26 -28 -24 c-35 -30 -39 -30 -64 4 -11
15 -21 22 -21 15 0 -6 5 -15 10 -18 18 -11 10 -23 -12 -17 -14 3 -19 2 -14 -6
4 -7 13 -12 19 -12 29 -1 38 -16 26 -43 -15 -32 -24 -33 -66 -7 -34 20 -46 13
-18 -10 14 -11 12 -15 -15 -31 -16 -10 -30 -21 -30 -25 0 -20 24 -42 50 -48
l32 -6 -21 -26 c-12 -15 -21 -32 -21 -38 0 -6 8 1 17 16 22 35 59 56 75 40 15
-15 19 -60 4 -59 -34 1 -56 -4 -56 -12 0 -5 11 -8 26 -5 23 4 24 3 14 -16 -6
-12 -9 -31 -7 -43 4 -20 4 -20 6 3 0 14 12 38 25 54 l23 30 22 -21 c26 -24 21
-41 -19 -68 -16 -11 -27 -21 -25 -23 2 -2 14 3 27 12 31 22 33 21 36 -16 4
-51 12 -46 13 8 1 27 1 52 1 55 -1 6 66 -10 77 -17 2 -2 -7 -20 -19 -41 l-22
-38 26 28 c23 25 33 23 26 -8 -1 -5 1 -7 5 -3 4 4 21 -6 39 -22 17 -17 40 -30
51 -29 11 0 15 3 8 5 -8 4 -9 13 -4 27 5 12 7 30 6 40 -4 21 4 21 39 4 14 -8
22 -18 18 -22 -4 -5 -1 -5 6 -1 15 9 12 14 -19 30 -12 6 -28 20 -35 32 -13 18
-11 22 15 42 37 27 61 19 61 -19 0 -16 4 -29 8 -29 5 0 7 13 4 30 -4 29 -4 29
37 25 23 -2 41 1 41 6 0 6 -9 8 -19 4 -23 -7 -101 23 -85 33 6 4 14 17 18 29
8 24 24 20 69 -16 10 -9 17 -10 17 -3 0 6 -10 18 -22 26 -21 15 -14 22 15 17
5 -1 6 3 2 9 -3 5 -21 10 -38 10 -28 0 -32 3 -34 29 -2 22 3 32 17 36 11 4 20
12 20 18 0 8 3 9 8 1 4 -6 22 -18 41 -27 44 -22 23 2 -25 28 -28 15 -38 17
-42 7 -5 -15 -32 -16 -32 0 0 6 -8 20 -17 30 -10 11 -13 18 -8 17 11 -3 85 27
85 35 0 6 -37 -1 -51 -10 -8 -4 -9 1 -4 17 16 51 15 53 -6 12 -24 -49 -26 -49
-58 -23 -24 21 -19 40 17 63 6 4 12 13 12 19 0 6 -8 4 -18 -5 -25 -23 -32 -21
-32 6 0 12 -5 29 -11 37 -8 12 -9 8 -8 -15z m-14 -97 c58 -26 113 -100 113
-152 0 -28 -38 -107 -59 -123 -125 -95 -301 -23 -301 124 0 114 138 199 247
151z m-267 -168 c0 -29 -2 -30 -44 -30 -54 0 -79 23 -50 45 10 8 36 15 57 15
35 0 37 -2 37 -30z m420 -25 c0 -3 -2 -5 -5 -5 -3 0 -5 2 -5 5 0 3 2 5 5 5 3
0 5 -2 5 -5z m-140 -190 c0 -63 -13 -70 -48 -30 -32 37 -33 67 -2 76 48 14 50
12 50 -46z M1975 2774 c-5 -1 -22 -5 -37 -8 -21 -5 -28 -12 -28 -31 0 -23 3
-25 50 -25 51 0 60 6 38 28 -9 9 -15 7 -25 -6 -8 -9 -12 -11 -8 -4 5 10 0 11
-22 6 -23 -5 -26 -4 -16 7 8 7 33 13 63 12 27 0 50 3 50 8 0 5 -6 9 -12 10 -7
0 -20 2 -28 3 -8 2 -19 2 -25 0z M2108 2772 c-33 -4 -58 -53 -38 -77 14 -17 5
-36 -15 -29 -10 4 -12 15 -8 35 3 17 1 29 -5 29 -5 0 -12 -10 -15 -22 -2 -13
-8 -30 -11 -39 -8 -18 30 -31 65 -22 21 6 26 42 8 60 -22 22 28 56 72 49 24
-4 39 -2 39 4 0 5 -8 10 -17 11 -10 0 -25 1 -33 3 -8 1 -27 0 -42 -2z M2123
2738 c-35 -17 -27 -25 22 -25 53 0 67 13 30 27 -14 6 -27 10 -28 9 -1 0 -12
-5 -24 -11z M2004 2615 c11 -8 26 -15 33 -15 18 0 16 -10 -4 -25 -14 -11 -11
-12 25 -11 50 1 50 2 15 32 -16 13 -23 24 -16 24 6 0 15 -4 18 -10 9 -15 41
-12 55 5 11 13 3 15 -66 15 -72 -1 -77 -2 -60 -15z M2743 2946 c-18 -11 -33
-26 -33 -33 0 -6 -4 -13 -10 -15 -5 -1 -10 -18 -12 -36 -1 -19 -6 -36 -10 -38
-4 -3 -8 -14 -8 -25 0 -11 5 -17 10 -14 16 10 12 -25 -5 -42 -16 -15 -11 -38
6 -28 15 10 10 -15 -6 -31 -9 -9 -13 -25 -9 -38 3 -15 -1 -29 -12 -40 -14 -15
-15 -19 -4 -26 12 -7 11 -13 -5 -31 -15 -16 -17 -23 -7 -26 10 -4 10 -10 -2
-28 -11 -16 -12 -25 -4 -27 12 -4 -6 -47 -26 -60 -8 -6 -7 -10 2 -16 9 -7 8
-13 -8 -27 -15 -14 -17 -20 -8 -26 9 -6 6 -14 -12 -30 -14 -11 -24 -26 -22
-31 2 -6 -4 -18 -13 -28 -9 -10 -15 -23 -13 -30 2 -7 -7 -16 -20 -19 -13 -3
-23 -10 -22 -15 3 -16 -24 -26 -52 -20 -17 3 -28 1 -28 -5 0 -6 5 -11 11 -11
5 0 7 -5 3 -11 -3 -6 -19 -9 -35 -7 -21 3 -29 0 -29 -10 0 -11 -8 -13 -29 -9
-19 4 -31 2 -34 -6 -2 -8 -12 -6 -32 7 -20 13 -30 15 -33 8 -5 -16 -35 -15
-50 0 -9 9 -12 9 -12 0 0 -8 -17 -11 -54 -8 -38 2 -61 -1 -76 -11 -20 -14 -22
-13 -27 5 -5 21 -5 21 -26 1 -25 -23 -37 -24 -37 -4 0 8 -4 15 -9 15 -5 0 -14
-7 -21 -15 -16 -19 -30 -19 -30 -1 0 9 -7 12 -20 9 -11 -3 -20 -9 -20 -14 0
-5 -7 -9 -15 -9 -8 0 -15 7 -15 15 0 11 -8 13 -30 9 -23 -5 -30 -3 -30 9 0 10
-6 13 -20 10 -29 -8 -59 5 -40 17 12 7 9 10 -12 10 -35 0 -59 10 -52 21 3 5
-6 14 -20 20 -14 7 -23 16 -20 21 3 5 -2 17 -13 26 -10 9 -19 23 -21 31 -1 7
-10 20 -19 29 -11 11 -12 17 -4 20 7 2 2 14 -14 29 -31 32 -32 46 -2 39 21 -6
21 -5 2 4 -24 13 -50 63 -35 68 5 2 3 14 -6 27 -9 13 -13 29 -9 35 4 6 1 18
-6 26 -10 13 -10 17 0 24 10 6 10 13 -4 34 -16 25 -16 26 0 26 16 0 17 2 3 18
-9 9 -21 28 -28 41 -11 21 -10 23 4 18 20 -8 21 3 1 29 -19 25 -19 34 0 34 18
0 18 -5 -1 61 -11 37 -28 65 -52 87 -42 39 -56 26 -22 -20 26 -35 22 -42 -14
-29 -37 15 -35 -9 4 -48 l30 -30 -27 -3 -27 -3 27 -27 c32 -32 33 -38 7 -38
-27 0 -25 -12 5 -40 19 -18 22 -27 14 -34 -8 -8 -13 -7 -16 2 -3 6 -9 10 -14
6 -5 -3 -5 -13 1 -25 6 -11 8 -24 5 -29 -3 -6 -1 -10 5 -10 18 0 42 -28 30
-35 -5 -3 -15 -3 -20 0 -13 8 -13 -1 2 -42 7 -18 20 -35 30 -39 25 -8 23 -28
-3 -21 -16 4 -19 2 -14 -11 4 -9 10 -27 13 -40 2 -12 14 -29 25 -37 l21 -15
-22 0 c-20 0 -21 -2 -11 -22 6 -13 21 -31 33 -40 19 -16 19 -18 3 -18 -15 0
-16 -3 -6 -22 15 -28 30 -43 49 -51 11 -4 9 -7 -8 -13 l-24 -7 27 -23 c15 -13
36 -26 46 -29 11 -4 17 -11 13 -16 -3 -5 -11 -6 -17 -2 -7 4 -6 -1 2 -10 7
-10 31 -20 52 -23 21 -4 37 -12 36 -18 -1 -7 11 -10 31 -9 28 1 33 -2 29 -17
-4 -17 2 -19 54 -19 37 1 59 5 59 12 0 8 4 7 12 -1 15 -15 55 -16 60 -1 3 8
10 8 26 -2 19 -12 25 -12 44 0 16 10 23 10 26 2 5 -15 29 -14 35 2 3 9 7 9 19
-1 12 -10 22 -10 44 -1 36 15 93 18 117 6 12 -5 24 -4 33 4 11 9 17 9 28 0 8
-7 25 -9 39 -6 14 4 35 2 47 -5 16 -8 25 -8 35 0 9 7 15 8 20 0 3 -5 20 -10
37 -10 26 0 29 2 18 15 -7 9 -10 19 -6 22 4 4 11 1 15 -6 7 -10 19 -12 47 -6
22 4 33 10 27 12 -23 8 -14 33 12 33 14 0 25 4 25 9 0 5 8 12 18 14 15 4 15 5
-1 6 -24 1 -17 25 9 30 38 6 71 51 39 51 -8 0 -15 5 -15 10 0 6 7 10 14 10 15
0 66 42 66 54 0 3 -7 6 -15 6 -8 0 -15 5 -15 10 0 6 6 10 13 10 11 0 26 20 44
61 1 3 -10 4 -25 2 -26 -3 -26 -3 -5 8 21 11 24 17 42 72 8 23 7 28 -5 23 -8
-3 -14 -1 -14 4 0 6 4 10 9 10 7 0 41 70 41 85 0 3 -11 3 -25 -1 -31 -8 -33 8
-2 21 24 11 52 77 35 84 -6 2 -14 -3 -19 -10 -4 -7 -11 -10 -15 -6 -4 4 3 15
14 26 12 10 22 25 22 33 0 8 5 19 12 26 9 9 8 12 -4 12 -9 0 -20 -4 -23 -10
-3 -5 -10 -10 -16 -10 -18 0 -9 15 21 35 34 23 41 50 10 40 -27 -8 -25 1 5 31
28 28 33 64 10 64 -8 0 -15 -4 -15 -10 0 -5 -7 -10 -17 -10 -14 0 -14 2 -2 18
47 58 43 82 -8 48z m-1243 -661 c0 -3 -2 -5 -5 -5 -3 0 -5 2 -5 5 0 3 2 5 5 5
3 0 5 -2 5 -5z m1080 -40 c0 -3 -2 -5 -5 -5 -3 0 -5 2 -5 5 0 3 2 5 5 5 3 0 5
-2 5 -5z m-950 -90 c0 -3 -2 -5 -5 -5 -3 0 -5 2 -5 5 0 3 2 5 5 5 3 0 5 -2 5
-5z m490 -90 c0 -3 -2 -5 -5 -5 -3 0 -5 2 -5 5 0 3 2 5 5 5 3 0 5 -2 5 -5z
M2020 2955 c0 -3 2 -5 5 -5 3 0 5 2 5 5 0 3 -2 5 -5 5 -3 0 -5 -2 -5 -5z
M2110 2955 c0 -3 2 -5 5 -5 3 0 5 2 5 5 0 3 -2 5 -5 5 -3 0 -5 -2 -5 -5z
M2640 2955 c0 -3 2 -5 5 -5 3 0 5 2 5 5 0 3 -2 5 -5 5 -3 0 -5 -2 -5 -5z
M1426 2934 c-3 -8 -2 -13 3 -10 5 3 12 -2 16 -12 6 -15 8 -14 21 8 9 14 13 17
10 8 -3 -10 -1 -18 5 -18 6 0 8 -7 5 -17 -5 -11 5 -27 28 -49 19 -18 31 -36
28 -40 -4 -4 -2 -4 5 0 13 7 1 46 -24 77 -7 8 -13 21 -13 28 0 7 -4 10 -9 7
-5 -3 -11 2 -13 12 -6 22 -54 27 -62 6z m34 1 c0 -3 -2 -5 -5 -5 -3 0 -5 2 -5
5 0 3 2 5 5 5 3 0 5 -2 5 -5z M1970 2935 c0 -3 2 -5 5 -5 3 0 5 2 5 5 0 3 -2
5 -5 5 -3 0 -5 -2 -5 -5z M2045 2913 c22 -38 30 -40 45 -14 15 29 12 48 -4 26
-14 -19 -15 -19 -37 0 l-22 20 18 -32z M1840 2915 c0 -3 2 -5 5 -5 3 0 5 2 5
5 0 3 -2 5 -5 5 -3 0 -5 -2 -5 -5z M1863 2913 c4 -3 10 -3 14 0 3 4 0 7 -7 7
-7 0 -10 -3 -7 -7z M2310 2905 c0 -3 2 -5 5 -5 3 0 5 2 5 5 0 3 -2 5 -5 5 -3
0 -5 -2 -5 -5z M2580 2895 c0 -3 2 -5 5 -5 3 0 5 2 5 5 0 3 -2 5 -5 5 -3 0 -5
-2 -5 -5z M1840 2880 c0 -7 3 -10 7 -7 3 4 3 10 0 14 -4 3 -7 0 -7 -7z M2655
2861 c-3 -11 -30 -41 -59 -68 -53 -49 -74 -92 -90 -180 -4 -25 -2 -31 9 -26
19 7 21 -67 3 -85 -9 -9 -9 -12 1 -12 9 0 11 -8 7 -27 -4 -16 -8 -42 -10 -59
-4 -28 -46 -111 -46 -90 0 6 -5 5 -12 -2 -15 -15 -38 -16 -38 -2 0 6 4 10 10
10 12 0 60 41 60 51 0 4 -9 9 -21 12 -22 6 -18 27 5 27 7 0 18 12 25 26 10 22
9 26 -3 21 -25 -10 -30 13 -8 36 11 12 23 33 27 46 7 22 5 23 -25 16 l-32 -7
16 31 c9 16 16 44 16 61 l0 32 -24 -29 c-41 -49 -48 -71 -41 -124 5 -32 3 -61
-5 -79 -15 -37 -33 -40 -20 -4 6 14 10 37 10 52 l0 26 -17 -24 c-20 -29 -42
-56 -61 -76 -24 -25 -10 -57 36 -82 33 -19 42 -29 42 -50 0 -58 -23 -64 -182
-48 -79 7 -91 6 -127 -12 -34 -18 -41 -19 -59 -6 -25 17 -60 19 -168 10 -94
-9 -154 8 -154 43 0 13 -12 27 -32 37 -61 31 -106 104 -55 88 l22 -6 -21 23
c-26 30 -39 73 -19 65 8 -3 16 0 18 7 3 9 8 8 20 -2 23 -18 21 -31 -3 -31 -27
0 -25 -11 5 -34 31 -23 31 -33 3 -42 -22 -6 -21 -7 8 -31 16 -13 34 -27 39
-32 15 -12 101 23 109 45 6 15 -12 74 -22 74 -4 0 -18 16 -31 35 -30 44 -41
44 -41 0 0 -19 5 -35 10 -35 6 0 10 -8 10 -17 0 -16 -1 -16 -16 -1 -12 12 -16
34 -15 89 1 70 -1 77 -33 117 -40 50 -53 41 -31 -23 19 -59 19 -58 -10 -51
-24 6 -35 -7 -15 -19 12 -7 13 -35 2 -35 -11 0 -32 46 -32 70 0 19 24 28 33
13 2 -5 2 -1 -1 7 -3 8 -7 39 -10 69 -4 50 -9 59 -62 113 -32 32 -65 69 -74
81 -15 22 -15 22 -15 1 -1 -12 8 -33 19 -47 l20 -26 -20 -6 c-25 -8 -26 -21 0
-37 27 -17 25 -36 -2 -40 -22 -4 -21 -5 9 -24 39 -23 40 -28 11 -41 -23 -10
-23 -11 9 -29 34 -19 39 -40 9 -38 -22 2 -20 -5 6 -27 19 -18 14 -25 -14 -20
-21 3 3 -27 37 -47 19 -11 19 -11 -2 -12 -32 0 -29 -15 8 -41 30 -21 31 -22
11 -33 -22 -12 -14 -25 23 -40 19 -7 19 -8 2 -21 -17 -12 -16 -14 13 -26 32
-15 40 -29 14 -29 -8 0 -12 -4 -9 -10 3 -5 18 -10 32 -10 21 0 24 -2 13 -15
-11 -13 -8 -15 20 -15 29 0 31 -2 19 -17 -13 -15 -11 -15 24 -9 36 7 38 6 32
-13 -6 -21 9 -29 20 -11 12 20 37 11 30 -10 -6 -19 -4 -19 20 -8 21 10 28 9
35 -2 7 -12 12 -11 28 3 23 21 32 22 32 2 0 -17 16 -20 25 -5 10 16 35 11 35
-7 0 -14 2 -14 21 3 19 17 21 18 30 1 8 -13 14 -15 29 -7 10 5 26 7 34 4 11
-4 16 -1 16 10 0 20 19 21 26 1 9 -22 21 -18 27 7 l6 22 19 -22 c28 -31 35
-27 30 17 -3 31 -1 37 9 29 7 -6 13 -19 13 -29 0 -20 7 -22 52 -19 14 1 29 -4
33 -10 3 -5 11 -8 16 -4 6 4 6 11 -2 20 -9 11 -7 14 10 14 11 0 21 -4 21 -10
0 -5 10 -10 22 -10 17 0 19 3 10 12 -21 21 -13 30 23 24 29 -6 34 -4 29 9 -5
12 1 15 27 15 31 0 32 1 13 15 -18 14 -18 14 8 15 28 0 50 21 30 28 -20 6 -13
22 16 33 15 7 22 13 15 16 -20 7 -15 31 7 38 21 7 28 25 10 25 -5 0 -10 7 -10
15 0 8 6 15 14 15 24 0 29 20 10 35 -11 7 -17 15 -14 17 3 2 14 8 24 14 29 15
34 38 7 29 -15 -4 -21 -2 -21 9 0 8 9 18 20 21 23 7 27 25 5 25 -23 0 -18 18
10 36 31 20 32 30 3 38 -22 6 -22 7 10 26 38 23 40 35 10 44 l-23 7 22 11 c12
6 23 19 26 29 4 16 1 18 -21 13 l-27 -7 23 25 c12 14 25 42 29 62 6 38 -1 49
-12 17z m-1145 -116 c0 -3 -2 -5 -5 -5 -3 0 -5 2 -5 5 0 3 2 5 5 5 3 0 5 -2 5
-5z m10 -30 c0 -3 -2 -5 -5 -5 -3 0 -5 2 -5 5 0 3 2 5 5 5 3 0 5 -2 5 -5z m0
-20 c0 -3 -2 -5 -5 -5 -3 0 -5 2 -5 5 0 3 2 5 5 5 3 0 5 -2 5 -5z m890 -310
c0 -3 -2 -5 -5 -5 -3 0 -5 2 -5 5 0 3 2 5 5 5 3 0 5 -2 5 -5z m130 -10 c0 -3
-2 -5 -5 -5 -3 0 -5 2 -5 5 0 3 2 5 5 5 3 0 5 -2 5 -5z M2328 2833 c7 -3 16
-2 19 1 4 3 -2 6 -13 5 -11 0 -14 -3 -6 -6z M1810 2805 c0 -3 2 -5 5 -5 3 0 5
2 5 5 0 3 -2 5 -5 5 -3 0 -5 -2 -5 -5z M1565 2790 c3 -5 8 -10 11 -10 3 0 2 5
-1 10 -3 6 -8 10 -11 10 -3 0 -2 -4 1 -10z M1590 2795 c0 -3 2 -5 5 -5 3 0 5
2 5 5 0 3 -2 5 -5 5 -3 0 -5 -2 -5 -5z M2330 2785 c-7 -9 -8 -15 -2 -15 5 0
12 7 16 15 3 8 4 15 2 15 -2 0 -9 -7 -16 -15z M2480 2795 c0 -3 2 -5 5 -5 3 0
5 2 5 5 0 3 -2 5 -5 5 -3 0 -5 -2 -5 -5z M2503 2793 c4 -3 10 -3 14 0 3 4 0 7
-7 7 -7 0 -10 -3 -7 -7z M1590 2775 c0 -3 2 -5 5 -5 3 0 5 2 5 5 0 3 -2 5 -5
5 -3 0 -5 -2 -5 -5z M2490 2775 c0 -3 2 -5 5 -5 3 0 5 2 5 5 0 3 -2 5 -5 5 -3
0 -5 -2 -5 -5z M2520 2765 c0 -3 2 -5 5 -5 3 0 5 2 5 5 0 3 -2 5 -5 5 -3 0 -5
-2 -5 -5z M2500 2745 c0 -3 2 -5 5 -5 3 0 5 2 5 5 0 3 -2 5 -5 5 -3 0 -5 -2
-5 -5z M620 2731 c-199 -27 -407 -184 -505 -382 -15 -30 -30 -61 -34 -69 -7
-14 -15 -42 -41 -162 -12 -57 -13 -194 -1 -234 5 -16 14 -54 21 -84 7 -30 17
-62 21 -70 4 -8 16 -33 26 -55 9 -22 23 -46 30 -53 7 -7 13 -17 13 -22 0 -5 6
-15 13 -22 6 -7 31 -36 54 -64 39 -47 157 -145 213 -175 14 -8 27 -17 30 -20
14 -16 205 -98 304 -130 65 -21 80 -18 49 8 -119 105 -104 290 31 381 44 29
55 32 127 32 192 0 329 -137 329 -328 l0 -81 -56 -3 c-56 -3 -57 -3 -81 -50
-30 -58 -24 -105 19 -149 25 -24 36 -29 59 -24 37 8 37 -5 0 -44 -119 -128
-284 -98 -409 74 l-21 30 -2 -40 c-3 -117 5 -165 44 -243 25 -52 120 -152 143
-152 3 0 20 -6 37 -14 82 -35 223 -48 293 -27 16 5 49 15 74 22 78 23 141 62
217 136 69 68 93 85 93 65 0 -5 15 -17 34 -27 25 -14 32 -23 27 -34 -64 -136
-80 -160 -150 -228 -41 -40 -73 -74 -70 -76 2 -2 31 -17 64 -32 57 -27 194
-110 205 -124 3 -4 28 -25 55 -46 59 -47 175 -166 175 -179 0 -6 42 32 93 83
107 108 105 106 177 157 30 21 61 44 68 51 7 7 19 13 25 13 7 0 23 9 37 20 14
11 33 20 43 20 9 0 17 5 17 10 0 6 9 10 19 10 32 0 34 19 6 43 -41 33 -125
120 -125 128 0 4 -6 14 -13 21 -13 13 -37 61 -56 109 -9 24 -6 29 35 59 l45
32 63 -62 c68 -66 147 -123 186 -134 14 -4 34 -11 45 -16 71 -30 214 -39 289
-19 142 39 224 114 272 248 16 43 28 172 19 200 -6 19 -10 17 -44 -26 -76 -95
-139 -133 -223 -133 -47 0 -131 41 -170 82 -30 32 -37 53 -15 45 15 -6 45 9
36 17 -2 3 -22 1 -44 -4 -85 -20 -100 -15 -117 37 l-16 48 29 10 c50 18 71 42
64 75 -6 29 -6 30 32 29 21 -1 30 -3 21 -6 -22 -5 -22 -10 -2 -48 22 -42 21
-82 -2 -101 -10 -9 -14 -13 -7 -10 6 4 13 2 15 -3 1 -4 13 -11 24 -15 17 -5
25 0 38 28 20 43 20 56 0 106 -11 26 -21 39 -30 36 -8 -3 -11 0 -8 9 4 10 -4
15 -27 17 -30 3 -34 7 -41 43 -18 85 25 202 100 274 157 150 369 112 436 -77
26 -76 1 -176 -60 -232 -32 -31 -30 -39 9 -30 99 24 367 142 367 162 0 4 6 8
13 8 7 0 22 8 33 18 10 9 37 30 59 47 202 149 314 409 286 659 -11 90 -26 171
-40 201 -27 63 -38 84 -65 125 -46 68 -56 80 -131 155 -39 39 -84 77 -100 85
-17 8 -32 17 -35 20 -12 12 -89 43 -140 57 -72 20 -261 22 -320 4 -117 -36
-140 -44 -205 -74 -38 -17 -72 -34 -75 -38 -3 -3 -16 -12 -30 -19 -29 -15 -92
-64 -129 -100 -30 -28 -39 -68 -27 -117 3 -13 0 -22 -6 -20 -6 1 -12 -6 -13
-16 -2 -11 -6 -21 -9 -24 -2 -3 -1 -16 4 -29 5 -13 6 -23 2 -22 -15 4 -50 -22
-55 -41 -3 -13 2 -25 16 -34 21 -14 21 -14 -3 -13 -15 1 -24 -4 -22 -11 1 -8
-8 -13 -20 -13 -19 0 -20 -2 -8 -10 13 -8 12 -10 -2 -10 -19 0 -24 -19 -10
-35 4 -6 3 -7 -2 -3 -14 11 -28 10 -22 -1 3 -5 -7 -11 -22 -14 -18 -4 -32 -16
-40 -37 -8 -17 -19 -30 -25 -29 -26 3 -37 -2 -37 -16 0 -12 -5 -13 -17 -7 -10
5 -43 10 -73 12 -114 5 -125 6 -135 11 -6 3 -48 4 -95 3 -482 -15 -499 -15
-528 6 -28 20 -63 21 -69 3 -2 -6 12 -23 31 -38 43 -32 47 -55 10 -55 -14 0
-23 -4 -19 -10 4 -7 -3 -7 -20 0 -28 10 -65 -5 -65 -26 0 -7 -7 -15 -16 -18
-15 -6 -16 -26 -12 -184 5 -193 7 -183 -55 -220 l-39 -22 -31 33 c-18 19 -48
53 -67 76 -131 158 -400 181 -535 46 -53 -54 -105 -177 -105 -252 0 -2 -13 -3
-28 -3 -45 0 -226 117 -305 197 -260 265 -248 675 26 945 68 67 115 96 207
129 83 29 276 32 384 6 79 -20 253 -101 307 -143 20 -16 45 -35 55 -42 11 -7
12 -10 4 -6 -8 4 0 -8 18 -26 17 -19 32 -42 32 -51 0 -10 5 -30 12 -46 6 -15
10 -35 9 -43 -1 -10 5 -8 17 7 11 12 22 19 26 16 11 -11 6 7 -9 38 -10 18 -20
27 -28 23 -7 -4 -5 1 3 12 52 66 -64 197 -246 280 -97 43 -109 48 -209 73 -55
14 -228 21 -295 12z m2823 -91 c85 -9 140 -28 245 -89 94 -54 222 -238 258
-371 26 -92 25 -274 0 -355 -11 -33 -19 -64 -17 -69 1 -5 -4 -16 -12 -25 -7
-9 -28 -40 -45 -68 -17 -29 -40 -61 -49 -71 -10 -10 -27 -30 -38 -43 -29 -36
-228 -181 -255 -185 -3 0 -17 -6 -32 -12 -42 -17 -55 -7 -61 51 -4 31 -24 86
-48 135 -36 72 -43 81 -57 70 -12 -10 -14 -10 -8 -1 10 17 -79 73 -117 73 -15
0 -26 3 -24 8 8 11 -103 5 -153 -8 -96 -26 -242 -132 -224 -162 4 -7 4 -10 0
-7 -4 4 -22 -9 -40 -27 -34 -34 -56 -43 -56 -24 0 6 -7 10 -15 10 -9 0 -27 11
-40 24 -22 22 -24 31 -19 78 9 81 10 249 2 254 -4 3 -5 10 -2 18 8 20 -14 66
-31 66 -8 0 -15 5 -15 12 0 6 -3 8 -6 5 -4 -4 -2 -12 4 -19 13 -17 -3 -347
-18 -362 -5 -5 -10 -25 -10 -42 0 -18 -5 -36 -10 -39 -6 -4 -8 -11 -5 -16 4
-5 2 -9 -3 -9 -5 0 -9 -11 -9 -24 0 -22 1 -23 26 -10 14 8 34 14 43 14 24 0
32 18 11 23 -12 3 -8 5 9 6 32 1 58 -8 58 -21 0 -5 -5 -6 -12 -2 -7 4 -8 3 -4
-5 4 -6 13 -11 19 -10 26 3 38 -2 31 -12 -4 -8 -9 -7 -15 2 -6 9 -9 -1 -9 -28
0 -50 -20 -61 -37 -21 -12 28 -12 29 -49 13 -25 -10 -41 -12 -54 -5 -27 14
-29 13 -25 -15 2 -26 2 -26 -16 -6 -19 21 -24 42 -12 54 7 8 43 106 43 119 0
4 -76 8 -170 8 -129 0 -170 3 -171 13 -1 6 0 56 1 110 l1 98 -143 -3 -143 -3
-2 -105 -2 -105 -171 3 -171 4 7 -39 c9 -51 49 -147 72 -171 6 -7 12 -18 12
-23 0 -5 55 -9 125 -9 l125 0 0 -128 0 -129 69 -36 69 -36 71 36 71 37 0 128
0 128 103 -1 c156 -3 154 -3 169 31 13 31 23 37 32 21 3 -4 -5 -21 -19 -37
-13 -15 -22 -31 -20 -35 3 -4 -2 -12 -10 -19 -21 -17 -19 -63 5 -105 28 -50
26 -59 -22 -80 -24 -10 -45 -21 -48 -24 -3 -3 -22 -15 -42 -26 -21 -11 -38
-23 -38 -27 0 -5 -39 -8 -87 -8 -71 0 -94 -4 -122 -21 -28 -17 -39 -19 -58
-10 -33 15 -33 15 -33 -23 0 -57 8 -66 54 -66 53 0 66 13 66 67 0 37 3 43 21
43 18 0 19 -3 9 -15 -6 -8 -9 -19 -5 -25 3 -5 1 -10 -5 -10 -6 0 -8 -4 -5 -10
11 -17 115 1 115 20 0 7 115 81 170 109 8 4 25 13 37 19 13 7 28 12 36 12 17
0 135 58 142 70 9 15 25 12 25 -5 0 -8 18 -53 39 -99 29 -63 36 -87 27 -96 -6
-6 -11 -16 -11 -22 0 -6 -7 -13 -15 -15 -13 -4 -13 -3 0 6 12 9 11 11 -7 11
-25 0 -39 -16 -21 -23 8 -4 7 -6 -4 -6 -9 -1 -25 -4 -35 -7 -15 -5 -15 -4 -3
5 13 9 13 11 0 11 -30 0 -115 -36 -115 -50 0 -7 -7 -15 -15 -17 -13 -4 -13 -3
0 6 12 9 11 11 -9 11 -17 0 -22 -4 -17 -16 3 -9 2 -12 -4 -9 -10 6 -86 -33
-112 -58 -7 -7 -35 -27 -63 -44 -27 -18 -43 -33 -35 -33 16 -1 -68 -49 -85
-49 -5 0 6 8 25 19 21 11 28 19 18 20 -9 0 -19 -4 -22 -9 -3 -4 -20 -11 -38
-15 -24 -5 -29 -9 -19 -15 10 -7 8 -11 -10 -17 -13 -4 -27 -7 -31 -6 -5 1 -8
-2 -8 -7 0 -14 48 -23 68 -12 9 4 26 5 37 1 11 -4 27 -3 36 3 29 18 64 0 89
-45 13 -24 34 -56 47 -71 34 -42 30 -50 -44 -103 -38 -26 -106 -79 -153 -119
-47 -39 -91 -74 -97 -78 -15 -9 -51 8 -78 37 -30 32 -153 128 -217 171 -66 43
-70 57 -28 110 16 20 32 45 35 54 3 10 19 27 35 40 28 20 34 21 68 9 20 -6 41
-15 45 -19 5 -4 24 -3 42 1 21 5 38 3 44 -3 8 -8 11 -7 11 4 0 10 -19 22 -47
32 l-48 16 45 -5 c39 -3 41 -2 15 5 -16 5 -41 13 -54 17 -17 5 -22 4 -17 -4 4
-7 2 -12 -3 -12 -6 0 -11 9 -11 20 0 11 -7 20 -16 20 -9 0 -12 -5 -8 -12 4 -7
3 -8 -4 -4 -7 4 -12 14 -12 22 0 8 -8 14 -17 14 -15 0 -16 -2 -3 -10 17 -11 9
-13 -15 -4 -13 6 -14 9 -3 16 7 6 9 11 3 14 -35 15 -75 46 -70 54 3 5 0 7 -7
5 -8 -3 -23 3 -33 13 -11 10 -29 21 -40 26 -16 6 -17 9 -5 17 12 9 12 10 -3 5
-10 -3 -23 -6 -28 -6 -6 0 -7 -5 -3 -12 4 -7 3 -8 -5 -4 -6 4 -9 11 -6 16 8
13 -41 39 -66 34 -13 -2 -18 -1 -10 2 9 5 4 11 -19 20 -38 16 -61 18 -40 3 13
-8 12 -10 -3 -7 -10 2 -17 7 -15 12 2 5 -21 19 -51 32 -62 28 -72 30 -45 9 10
-8 15 -14 9 -14 -5 0 -19 6 -29 14 -11 8 -14 15 -8 15 7 0 12 11 12 25 0 14 5
25 10 25 6 0 10 6 10 13 1 24 68 149 74 139 8 -13 65 -42 83 -42 7 0 13 -4 13
-10 0 -5 8 -10 18 -10 11 0 32 -6 48 -14 16 -8 46 -22 67 -31 20 -10 37 -21
37 -26 0 -5 5 -9 11 -9 6 0 26 -12 45 -26 19 -15 40 -24 49 -20 9 3 13 2 10
-3 -3 -6 10 -21 28 -35 41 -32 57 -34 31 -5 -19 22 -19 22 3 8 13 -7 22 -20
20 -28 -2 -14 61 -56 71 -47 3 3 -3 8 -12 12 -9 3 -16 10 -16 16 0 5 5 6 10 3
6 -3 10 3 10 15 0 12 -4 19 -9 16 -5 -3 -11 8 -13 24 -3 16 0 32 6 34 6 2 -27
5 -73 5 -75 1 -88 4 -120 28 -20 15 -37 31 -39 35 -2 4 -10 8 -18 8 -8 0 -14
5 -14 10 0 6 -9 10 -20 10 -11 0 -20 5 -20 10 0 6 -9 10 -20 10 -26 0 -26 27
0 60 11 14 20 30 20 35 0 6 14 10 32 10 25 0 45 -13 102 -67 39 -38 74 -68 78
-68 4 0 7 28 6 63 -1 36 -3 47 -5 27 -6 -59 -10 -63 -35 -41 -12 12 -25 21
-29 21 -4 0 -11 9 -14 20 -4 11 -10 18 -15 15 -5 -3 -26 17 -47 44 -21 27 -42
50 -47 50 -5 1 -1 -8 8 -18 36 -40 9 -40 -31 -1 -23 22 -37 40 -31 40 7 0 5 7
-4 18 -20 23 -69 120 -74 146 -8 46 -26 123 -35 152 -10 33 -13 304 -3 304 3
0 31 -15 62 -33 74 -43 180 -79 277 -92 78 -11 343 -9 410 4 136 25 293 97
291 134 -1 13 -8 21 -23 22 -12 1 -20 -2 -17 -7 3 -4 -2 -5 -10 -2 -17 6 -22
44 -7 44 5 0 16 16 25 35 9 19 19 35 22 35 3 0 2 -4 -1 -10 -3 -5 1 -10 10
-10 9 0 13 5 9 11 -4 8 1 9 17 4 22 -7 22 -6 10 9 -8 10 -21 14 -30 11 -12 -5
-13 -3 -5 5 9 9 17 9 32 1 22 -12 39 -15 29 -5 -3 3 6 17 20 30 14 13 23 27
20 31 -4 3 5 16 20 29 25 21 43 61 22 48 -5 -3 -9 0 -9 5 0 6 5 11 11 11 5 0
7 5 3 12 -4 6 -3 8 4 4 13 -8 42 31 42 57 0 9 7 20 16 24 13 5 13 7 2 14 -10
7 -10 9 0 9 6 0 12 5 12 11 0 5 -4 8 -9 4 -6 -3 -8 4 -6 16 5 23 81 99 99 99
6 0 28 17 50 38 21 20 36 31 31 24 -4 -8 11 -2 34 12 22 14 43 26 45 26 2 0
26 10 53 22 89 40 118 49 173 57 78 12 85 12 183 1z m-2063 -225 c0 -3 -2 -5
-5 -5 -3 0 -5 2 -5 5 0 3 2 5 5 5 3 0 5 -2 5 -5z m1390 -20 c0 -3 -2 -5 -5 -5
-3 0 -5 2 -5 5 0 3 2 5 5 5 3 0 5 -2 5 -5z m-73 -172 c-4 -3 -7 0 -7 7 0 7 3
10 7 7 3 -4 3 -10 0 -14z m-7 -18 c0 -3 -2 -5 -5 -5 -3 0 -5 2 -5 5 0 3 2 5 5
5 3 0 5 -2 5 -5z m10 -40 c0 -3 -2 -5 -5 -5 -3 0 -5 2 -5 5 0 3 2 5 5 5 3 0 5
-2 5 -5z m-1080 -150 c0 -3 -2 -5 -5 -5 -3 0 -5 2 -5 5 0 3 2 5 5 5 3 0 5 -2
5 -5z m788 -48 c31 -15 23 -79 -11 -85 -4 -1 -15 -8 -23 -17 -9 -8 -23 -15
-32 -16 -9 0 -27 -2 -40 -3 -12 -2 -32 6 -44 16 -13 11 -28 16 -37 12 -30 -13
-79 -16 -98 -5 -15 8 -25 7 -39 -4 -23 -18 -66 -19 -82 -3 -9 9 -15 9 -24 0
-14 -14 -57 -16 -77 -3 -7 5 -25 4 -42 -3 -22 -8 -34 -8 -49 2 -11 6 -36 12
-55 12 -29 0 -37 5 -45 26 -26 67 31 88 218 80 75 -4 142 -6 147 -6 6 0 48 3
94 5 52 4 88 1 96 -5 9 -8 23 -7 47 3 34 14 57 13 96 -6z m-768 8 c0 -3 -2 -5
-5 -5 -3 0 -5 2 -5 5 0 3 2 5 5 5 3 0 5 -2 5 -5z m817 -12 c-4 -3 -10 -3 -14
0 -3 4 0 7 7 7 7 0 10 -3 7 -7z m33 -44 c0 -6 -4 -7 -10 -4 -5 3 -10 11 -10
16 0 6 5 7 10 4 6 -3 10 -11 10 -16z m60 -4 c0 -3 -2 -5 -5 -5 -3 0 -5 2 -5 5
0 3 2 5 5 5 3 0 5 -2 5 -5z m70 -20 c0 -3 -2 -5 -5 -5 -3 0 -5 2 -5 5 0 3 2 5
5 5 3 0 5 -2 5 -5z m-3 -32 c-4 -3 -7 0 -7 7 0 7 3 10 7 7 3 -4 3 -10 0 -14z
m-527 -158 c0 -3 -2 -5 -5 -5 -3 0 -5 2 -5 5 0 3 2 5 5 5 3 0 5 -2 5 -5z m16
-46 c3 -6 7 -28 8 -50 2 -29 10 -45 37 -70 19 -17 28 -28 22 -24 -7 3 -13 2
-13 -2 0 -5 6 -15 13 -22 10 -11 9 -12 -2 -6 -9 5 -12 4 -7 -3 3 -6 14 -10 24
-9 10 0 35 -7 56 -17 21 -10 44 -15 52 -12 8 3 27 0 42 -6 15 -6 39 -10 53 -9
16 1 29 -5 33 -14 3 -8 1 -15 -5 -15 -6 0 -20 -11 -30 -24 -17 -21 -26 -24
-81 -22 -100 4 -156 -27 -189 -101 -8 -18 -18 -33 -23 -33 -5 0 -2 -8 6 -17
25 -29 31 -70 11 -81 -15 -9 -15 -15 -5 -48 8 -29 9 -41 0 -49 -8 -7 -9 -5 -5
7 3 10 2 20 -3 23 -5 3 -12 -4 -15 -16 -4 -13 -12 -18 -22 -15 -9 4 -17 -1
-20 -14 -6 -22 -25 -28 -22 -7 4 33 -2 57 -16 57 -10 0 -15 11 -16 33 -4 89
-6 135 -7 160 -2 33 -57 93 -92 101 -22 5 -95 15 -142 20 -28 3 -48 27 -48 57
0 28 1 29 40 24 26 -3 40 -1 40 6 0 8 4 8 13 2 16 -12 74 -16 81 -4 3 4 17 6
30 4 20 -4 29 1 44 26 10 17 21 28 25 25 8 -9 20 103 13 123 -8 20 10 33 47
33 15 0 27 5 27 10 0 13 35 -4 46 -21z m534 16 c0 -3 -2 -5 -5 -5 -3 0 -5 2
-5 5 0 3 2 5 5 5 3 0 5 -2 5 -5z m707 -82 c-4 -3 -7 0 -7 7 0 7 3 10 7 7 3 -4
3 -10 0 -14z m-1430 -100 c-4 -3 -7 0 -7 7 0 7 3 10 7 7 3 -4 3 -10 0 -14z
m-27 -8 c0 -3 -2 -5 -5 -5 -3 0 -5 2 -5 5 0 3 2 5 5 5 3 0 5 -2 5 -5z m-410
-35 c0 -5 -10 -10 -22 -10 -19 0 -20 2 -8 10 19 13 30 13 30 0z m-50 -15 c0
-8 -4 -15 -10 -15 -5 0 -10 -7 -10 -15 0 -13 5 -11 23 5 26 25 81 23 122 -4
47 -31 14 -57 -39 -31 -29 15 -32 15 -48 -5 -9 -11 -19 -26 -22 -33 -4 -8 -8
-9 -11 -1 -3 6 -13 20 -21 30 -14 18 -14 17 -3 -5 10 -21 9 -23 -5 -18 -10 4
-16 1 -16 -8 0 -7 -5 -17 -12 -21 -6 -4 -9 -3 -6 2 14 25 21 51 19 70 -1 11 5
26 13 33 9 8 13 17 10 22 -3 5 0 9 5 9 6 0 11 -7 11 -15z m87 9 c-3 -3 -12 -4
-19 -1 -8 3 -5 6 6 6 11 1 17 -2 13 -5z m28 -4 c3 -5 4 -10 1 -10 -3 0 -8 5
-11 10 -3 6 -4 10 -1 10 3 0 8 -4 11 -10z m-155 -5 c0 -3 -2 -5 -5 -5 -3 0 -5
2 -5 5 0 3 2 5 5 5 3 0 5 -2 5 -5z m1197 -2 c-4 -3 -10 -3 -14 0 -3 4 0 7 7 7
7 0 10 -3 7 -7z m-27 -8 c0 -3 -2 -5 -5 -5 -3 0 -5 2 -5 5 0 3 2 5 5 5 3 0 5
-2 5 -5z m170 -95 c0 -13 -1 -13 -10 0 -6 9 -10 10 -10 3 0 -20 12 -43 20 -38
5 3 12 0 16 -6 4 -8 3 -9 -4 -5 -19 12 -14 -10 18 -75 34 -70 31 -80 -28 -105
-43 -18 -42 -18 -42 6 0 11 -4 20 -9 20 -5 0 -12 20 -15 44 -10 62 -42 75
-117 47 -68 -26 -99 -27 -99 -3 0 24 32 40 95 47 115 13 143 28 160 84 8 25
25 12 25 -19z m-1147 10 c9 -10 9 -11 0 -6 -6 3 -21 -6 -32 -20 -15 -20 -26
-25 -43 -20 -35 9 -56 26 -40 33 6 2 12 10 12 17 0 16 88 12 103 -4z m1007 -2
c25 16 47 15 47 0 0 -7 2 -20 4 -28 3 -10 -8 -16 -36 -20 -38 -5 -42 -4 -58
27 -16 32 -16 33 3 21 16 -10 24 -10 40 0z m-1153 -28 c22 -20 72 -34 155 -45
46 -6 68 -24 68 -54 0 -18 -57 -12 -92 9 -47 28 -105 27 -113 -2 -4 -13 -16
-44 -28 -70 -19 -41 -25 -46 -47 -41 -25 6 -83 53 -65 53 6 0 28 38 50 85 22
46 43 84 46 84 3 1 15 -8 26 -19z m143 6 c0 -3 -5 -8 -12 -12 -7 -4 -8 -3 -4
4 7 12 16 16 16 8z m597 -23 c-4 -3 -7 0 -7 7 0 7 3 10 7 7 3 -4 3 -10 0 -14z
m363 12 c0 -3 -2 -5 -5 -5 -3 0 -5 2 -5 5 0 3 2 5 5 5 3 0 5 -2 5 -5z m0 -20
c0 -3 -2 -5 -5 -5 -3 0 -5 2 -5 5 0 3 2 5 5 5 3 0 5 -2 5 -5z m-50 -10 c0 -3
-2 -5 -5 -5 -3 0 -5 2 -5 5 0 3 2 5 5 5 3 0 5 -2 5 -5z m-1140 -30 c0 -3 -2
-5 -5 -5 -3 0 -5 2 -5 5 0 3 2 5 5 5 3 0 5 -2 5 -5z m212 -45 c23 -11 52 -20
65 -20 l23 0 -22 -35 c-22 -33 -51 -45 -62 -26 -3 5 -18 12 -33 16 -28 7 -63
40 -63 60 0 31 35 33 92 5z m1075 -7 c7 -18 -38 -63 -63 -63 -8 0 -14 -4 -14
-10 0 -5 -8 -10 -18 -10 -10 0 -23 -5 -30 -12 -9 -9 -13 -7 -18 8 -4 10 -16
31 -26 47 l-19 27 38 0 c22 0 43 4 49 9 24 23 93 26 101 4z m-1334 -23 c-7
-25 17 -54 58 -70 16 -7 29 -18 29 -25 0 -25 -44 -95 -59 -95 -46 0 -121 14
-121 22 0 5 4 7 9 3 19 -11 22 17 7 50 -15 31 -15 35 1 64 10 17 27 34 37 37
18 6 18 7 -5 20 -24 13 -23 13 13 14 31 0 35 -3 31 -20z m1607 -45 c0 -3 -2
-5 -5 -5 -3 0 -5 2 -5 5 0 3 2 5 5 5 3 0 5 -2 5 -5z m-910 -80 c0 -3 -2 -5 -5
-5 -3 0 -5 2 -5 5 0 3 2 5 5 5 3 0 5 -2 5 -5z m-820 -10 c0 -3 -2 -5 -5 -5 -3
0 -5 2 -5 5 0 3 2 5 5 5 3 0 5 -2 5 -5z m1710 -10 c0 -3 -2 -5 -5 -5 -3 0 -5
2 -5 5 0 3 2 5 5 5 3 0 5 -2 5 -5z m-1700 -10 c0 -3 -2 -5 -5 -5 -3 0 -5 2 -5
5 0 3 2 5 5 5 3 0 5 -2 5 -5z m910 -10 c0 -3 -2 -5 -5 -5 -3 0 -5 2 -5 5 0 3
2 5 5 5 3 0 5 -2 5 -5z m-753 -42 c-4 -3 -10 -3 -14 0 -3 4 0 7 7 7 7 0 10 -3
7 -7z m603 2 c0 -3 -2 -5 -5 -5 -3 0 -5 2 -5 5 0 3 2 5 5 5 3 0 5 -2 5 -5z
m300 -10 c0 -3 -2 -5 -5 -5 -3 0 -5 2 -5 5 0 3 2 5 5 5 3 0 5 -2 5 -5z m-370
-10 c0 -3 -2 -5 -5 -5 -3 0 -5 2 -5 5 0 3 2 5 5 5 3 0 5 -2 5 -5z m340 -10 c0
-3 -2 -5 -5 -5 -3 0 -5 2 -5 5 0 3 2 5 5 5 3 0 5 -2 5 -5z m530 -5 c0 -5 -5
-10 -11 -10 -5 0 -7 5 -4 10 3 6 8 10 11 10 2 0 4 -4 4 -10z m-1305 -28 c-3
-3 -11 0 -18 7 -9 10 -8 11 6 5 10 -3 15 -9 12 -12z m510 -12 c3 -5 4 -10 1
-10 -3 0 -8 5 -11 10 -3 6 -4 10 -1 10 3 0 8 -4 11 -10z m-590 -9 c6 -11 115
-46 130 -42 5 2 7 -1 3 -5 -5 -4 2 -12 14 -18 34 -17 33 -42 -2 -75 -33 -30
-131 -82 -165 -88 -106 -19 -155 -19 -240 0 -52 12 -145 82 -145 108 0 4 44 9
98 11 107 5 132 14 215 79 48 38 80 48 92 30z m172 -8 c-4 -3 -10 -3 -14 0 -3
4 0 7 7 7 7 0 10 -3 7 -7z m1070 1 c-3 -3 -12 -4 -19 -1 -8 3 -5 6 6 6 11 1
17 -2 13 -5z m233 -34 c72 -54 134 -73 223 -68 70 3 72 2 70 -20 -2 -15 1 -21
9 -16 7 4 8 3 4 -5 -4 -6 -11 -9 -16 -6 -4 3 -10 -1 -13 -8 -2 -7 -29 -26 -58
-42 -51 -28 -61 -30 -164 -30 -125 0 -195 21 -271 83 -57 45 -61 66 -18 91 19
11 34 16 34 12 0 -5 13 -4 29 2 17 6 28 15 25 19 -5 8 9 12 33 9 6 -1 14 3 18
9 12 19 41 10 95 -30z m-280 20 c-20 -13 -33 -13 -25 0 3 6 14 10 23 10 15 0
15 -2 2 -10z m-945 -20 c3 -6 -1 -7 -9 -4 -18 7 -21 14 -7 14 6 0 13 -4 16
-10z m835 -35 c0 -3 -2 -5 -5 -5 -3 0 -5 2 -5 5 0 3 2 5 5 5 3 0 5 -2 5 -5z
m-310 -200 c0 -3 -2 -5 -5 -5 -3 0 -5 2 -5 5 0 3 2 5 5 5 3 0 5 -2 5 -5z m80
0 c0 -3 -2 -5 -5 -5 -3 0 -5 2 -5 5 0 3 2 5 5 5 3 0 5 -2 5 -5z m190 -160 c0
-3 -2 -5 -5 -5 -3 0 -5 2 -5 5 0 3 2 5 5 5 3 0 5 -2 5 -5z M3465 2424 c-11
-15 -22 -21 -29 -15 -7 5 -23 1 -41 -10 -16 -11 -26 -19 -21 -19 5 0 -3 -11
-18 -25 -15 -14 -31 -25 -36 -25 -4 0 -16 -3 -26 -7 -13 -5 -15 -3 -9 8 7 11
6 12 -6 3 -8 -6 -27 -11 -44 -12 -16 -1 -33 -6 -38 -11 -6 -6 -2 -8 10 -5 12
3 24 1 27 -5 5 -7 -7 -11 -33 -11 -48 0 -50 -8 -13 -46 15 -16 23 -26 17 -22
-26 22 -37 -20 -10 -42 8 -7 12 -16 9 -21 -3 -5 -1 -9 5 -9 7 0 7 -8 1 -25 -6
-15 -6 -26 0 -30 6 -4 6 -14 -1 -26 -6 -12 -8 -23 -5 -27 3 -3 6 0 6 7 0 7 5
9 10 6 7 -4 5 -14 -5 -28 -25 -35 -20 -58 10 -47 29 11 58 3 48 -14 -5 -8 -3
-8 8 1 27 22 109 16 109 -8 0 -6 5 -7 10 -4 6 3 10 1 10 -5 0 -6 4 -9 10 -5 5
3 15 -6 23 -21 12 -22 15 -24 20 -10 5 12 3 15 -6 10 -6 -4 -9 -4 -5 1 4 4 3
14 -3 22 -6 7 -8 13 -3 13 5 0 20 -17 34 -38 l24 -37 12 60 c7 36 12 49 13 32
1 -37 17 -27 31 21 18 58 42 112 52 113 4 1 13 3 18 4 6 1 14 3 18 4 4 0 8 9
9 20 1 14 -4 18 -20 15 -13 -3 -8 2 12 11 18 9 31 19 27 22 -3 3 -41 -11 -86
-32 l-80 -39 0 -51 c0 -29 -3 -73 -6 -99 l-7 -47 -34 48 c-73 103 -74 103
-111 84 -21 -12 -78 -36 -116 -51 l-28 -10 21 36 c12 20 20 43 17 50 -3 7 0
11 7 9 7 -3 21 14 32 36 l19 41 -64 59 c-36 32 -58 58 -50 58 8 0 48 -4 89 -9
77 -10 108 -2 97 26 -3 8 0 11 9 8 7 -3 16 3 19 13 4 10 24 38 46 63 l39 45 1
-92 0 -93 28 -5 c15 -3 43 -10 62 -15 19 -5 47 -11 62 -14 14 -3 33 -9 42 -12
9 -3 16 -2 16 4 0 5 -16 13 -36 16 -25 5 -34 11 -30 21 3 8 2 14 -2 13 -16 -5
-72 60 -93 107 -21 47 -22 49 -29 25 -7 -21 -8 -18 -9 17 -1 51 -11 59 -36 27z
m-58 -41 c-4 -3 -10 -3 -14 0 -3 4 0 7 7 7 7 0 10 -3 7 -7z m33 3 c0 -3 -4 -8
-10 -11 -5 -3 -10 -1 -10 4 0 6 5 11 10 11 6 0 10 -2 10 -4z m-60 -31 c0 -3
-2 -5 -5 -5 -3 0 -5 2 -5 5 0 3 2 5 5 5 3 0 5 -2 5 -5z m30 0 c0 -3 -2 -5 -5
-5 -3 0 -5 2 -5 5 0 3 2 5 5 5 3 0 5 -2 5 -5z m100 -20 c0 -3 -2 -5 -5 -5 -3
0 -5 2 -5 5 0 3 2 5 5 5 3 0 5 -2 5 -5z m-120 -10 c0 -3 -2 -5 -5 -5 -3 0 -5
2 -5 5 0 3 2 5 5 5 3 0 5 -2 5 -5z m-110 -40 c0 -3 -2 -5 -5 -5 -3 0 -5 2 -5
5 0 3 2 5 5 5 3 0 5 -2 5 -5z m320 -50 c0 -3 -2 -5 -5 -5 -3 0 -5 2 -5 5 0 3
2 5 5 5 3 0 5 -2 5 -5z m-380 -50 c0 -3 -2 -5 -5 -5 -3 0 -5 2 -5 5 0 3 2 5 5
5 3 0 5 -2 5 -5z m390 -40 c0 -3 -2 -5 -5 -5 -3 0 -5 2 -5 5 0 3 2 5 5 5 3 0
5 -2 5 -5z m-290 -130 c0 -3 -2 -5 -5 -5 -3 0 -5 2 -5 5 0 3 2 5 5 5 3 0 5 -2
5 -5z m-50 -20 c0 -3 -2 -5 -5 -5 -3 0 -5 2 -5 5 0 3 2 5 5 5 3 0 5 -2 5 -5z
m30 0 c0 -3 -2 -5 -5 -5 -3 0 -5 2 -5 5 0 3 2 5 5 5 3 0 5 -2 5 -5z m135 -15
c3 -5 4 -10 1 -10 -3 0 -8 5 -11 10 -3 6 -4 10 -1 10 3 0 8 -4 11 -10z M3440
2435 c0 -3 2 -5 5 -5 3 0 5 2 5 5 0 3 -2 5 -5 5 -3 0 -5 -2 -5 -5z M3510 2420
c0 -7 3 -10 7 -7 3 4 3 10 0 14 -4 3 -7 0 -7 -7z M2780 2365 c0 -3 2 -5 5 -5
3 0 5 2 5 5 0 3 -2 5 -5 5 -3 0 -5 -2 -5 -5z M3170 2305 c0 -3 2 -5 5 -5 3 0
5 2 5 5 0 3 -2 5 -5 5 -3 0 -5 -2 -5 -5z M3130 2295 c0 -3 2 -5 5 -5 3 0 5 2
5 5 0 3 -2 5 -5 5 -3 0 -5 -2 -5 -5z M2770 2285 c0 -3 2 -5 5 -5 3 0 5 2 5 5
0 3 -2 5 -5 5 -3 0 -5 -2 -5 -5z M3650 2255 c0 -3 2 -5 5 -5 3 0 5 2 5 5 0 3
-2 5 -5 5 -3 0 -5 -2 -5 -5z M3650 2235 c0 -3 2 -5 5 -5 3 0 5 2 5 5 0 3 -2 5
-5 5 -3 0 -5 -2 -5 -5z M3670 2225 c0 -3 2 -5 5 -5 3 0 5 2 5 5 0 3 -2 5 -5 5
-3 0 -5 -2 -5 -5z M3670 2155 c0 -3 2 -5 5 -5 3 0 5 2 5 5 0 3 -2 5 -5 5 -3 0
-5 -2 -5 -5z M3200 2085 c0 -3 2 -5 5 -5 3 0 5 2 5 5 0 3 -2 5 -5 5 -3 0 -5
-2 -5 -5z M3240 1955 c0 -3 2 -5 5 -5 3 0 5 2 5 5 0 3 -2 5 -5 5 -3 0 -5 -2
-5 -5z M2600 1925 c0 -3 2 -5 5 -5 3 0 5 2 5 5 0 3 -2 5 -5 5 -3 0 -5 -2 -5
-5z M2560 1865 c0 -3 2 -5 5 -5 3 0 5 2 5 5 0 3 -2 5 -5 5 -3 0 -5 -2 -5 -5z
M1550 1855 c0 -3 2 -5 5 -5 3 0 5 2 5 5 0 3 -2 5 -5 5 -3 0 -5 -2 -5 -5z
M1575 1840 c3 -5 8 -10 11 -10 3 0 2 5 -1 10 -3 6 -8 10 -11 10 -3 0 -2 -4 1
-10z M2524 1838 c-4 -7 -3 -8 4 -4 7 4 12 9 12 12 0 8 -9 4 -16 -8z M1613
1823 c4 -3 10 -3 14 0 3 4 0 7 -7 7 -7 0 -10 -3 -7 -7z M2490 1825 c0 -3 2 -5
5 -5 3 0 5 2 5 5 0 3 -2 5 -5 5 -3 0 -5 -2 -5 -5z M1640 1815 c0 -3 2 -5 5 -5
3 0 5 2 5 5 0 3 -2 5 -5 5 -3 0 -5 -2 -5 -5z M2445 1810 c-3 -6 1 -7 9 -4 18
7 21 14 7 14 -6 0 -13 -4 -16 -10z M1660 1805 c0 -3 2 -5 5 -5 3 0 5 2 5 5 0
3 -2 5 -5 5 -3 0 -5 -2 -5 -5z M1693 1793 c4 -3 10 -3 14 0 3 4 0 7 -7 7 -7 0
-10 -3 -7 -7z M2400 1795 c0 -3 2 -5 5 -5 3 0 5 2 5 5 0 3 -2 5 -5 5 -3 0 -5
-2 -5 -5z M1750 1775 c0 -3 2 -5 5 -5 3 0 5 2 5 5 0 3 -2 5 -5 5 -3 0 -5 -2
-5 -5z M2343 1773 c4 -3 10 -3 14 0 3 4 0 7 -7 7 -7 0 -10 -3 -7 -7z M1773
1763 c4 -3 10 -3 14 0 3 4 0 7 -7 7 -7 0 -10 -3 -7 -7z M1823 1753 c4 -3 10
-3 14 0 3 4 0 7 -7 7 -7 0 -10 -3 -7 -7z M2268 1753 c7 -3 16 -2 19 1 4 3 -2
6 -13 5 -11 0 -14 -3 -6 -6z M1873 1743 c4 -3 10 -3 14 0 3 4 0 7 -7 7 -7 0
-10 -3 -7 -7z M2233 1743 c4 -3 10 -3 14 0 3 4 0 7 -7 7 -7 0 -10 -3 -7 -7z
M2550 1600 c0 -7 3 -10 7 -7 3 4 3 10 0 14 -4 3 -7 0 -7 -7z M1560 1555 c0 -3
2 -5 5 -5 3 0 5 2 5 5 0 3 -2 5 -5 5 -3 0 -5 -2 -5 -5z M2230 1545 c0 -3 2 -5
5 -5 3 0 5 2 5 5 0 3 -2 5 -5 5 -3 0 -5 -2 -5 -5z M1570 1435 c0 -3 2 -5 5 -5
3 0 5 2 5 5 0 3 -2 5 -5 5 -3 0 -5 -2 -5 -5z M2640 1435 c0 -3 2 -5 5 -5 3 0
5 2 5 5 0 3 -2 5 -5 5 -3 0 -5 -2 -5 -5z M1680 1275 c0 -3 2 -5 5 -5 3 0 5 2
5 5 0 3 -2 5 -5 5 -3 0 -5 -2 -5 -5z M1880 1265 c0 -3 2 -5 5 -5 3 0 5 2 5 5
0 3 -2 5 -5 5 -3 0 -5 -2 -5 -5z M2320 1265 c0 -3 2 -5 5 -5 3 0 5 2 5 5 0 3
-2 5 -5 5 -3 0 -5 -2 -5 -5z M2348 1263 c7 -3 16 -2 19 1 4 3 -2 6 -13 5 -11
0 -14 -3 -6 -6z M2408 1263 c7 -3 16 -2 19 1 4 3 -2 6 -13 5 -11 0 -14 -3 -6
-6z M2400 1245 c0 -3 2 -5 5 -5 3 0 5 2 5 5 0 3 -2 5 -5 5 -3 0 -5 -2 -5 -5z
M2213 1195 c0 -27 2 -38 4 -22 2 15 2 37 0 50 -2 12 -4 0 -4 -28z M1882 1210
c0 -14 2 -19 5 -12 2 6 2 18 0 25 -3 6 -5 1 -5 -13z M2390 1225 c0 -3 2 -5 5
-5 3 0 5 2 5 5 0 3 -2 5 -5 5 -3 0 -5 -2 -5 -5z M2360 1210 c-8 -5 -11 -10 -7
-10 5 0 -11 -16 -35 -36 -23 -20 -54 -47 -68 -61 -22 -23 -25 -23 -31 -6 -6
13 -8 9 -8 -16 -1 -37 -4 -38 63 19 77 66 139 144 86 110z M2400 1200 c0 -5 5
-10 10 -10 6 0 10 5 10 10 0 6 -4 10 -10 10 -5 0 -10 -4 -10 -10z M1452 1042
c-24 -53 -26 -62 -14 -62 5 0 19 19 32 43 30 54 27 52 45 37 9 -7 18 -10 22
-6 9 8 -27 35 -48 36 -9 0 -24 -20 -37 -48z M2599 1073 c-21 -10 -25 -18 -21
-38 3 -16 10 -24 17 -21 8 3 11 -2 8 -13 -7 -27 20 -43 51 -31 15 5 24 15 21
20 -5 8 -11 8 -20 0 -9 -7 -16 -6 -24 4 -9 11 -8 15 4 20 22 8 18 23 -6 22
-30 -1 -34 19 -7 31 12 5 18 12 12 15 -5 2 -21 -1 -35 -9z M1527 1010 c-13
-27 -22 -52 -19 -55 15 -15 25 0 70 98 2 4 -3 7 -11 7 -8 0 -26 -22 -40 -50z
M2512 1035 c-25 -14 -29 -32 -6 -27 12 3 19 -8 39 -65 2 -7 11 -10 18 -7 12 4
11 12 -7 46 -15 30 -18 42 -8 45 6 3 12 9 12 14 0 12 -20 10 -48 -6z M1488
1018 c9 -9 15 -9 24 0 9 9 7 12 -12 12 -19 0 -21 -3 -12 -12z M1578 985 l-27
-44 22 -16 c31 -22 43 -19 71 18 33 43 33 59 -1 75 -37 17 -35 18 -65 -33z
m72 9 c0 -3 -7 -12 -15 -20 -8 -8 -19 -22 -23 -31 -5 -9 -15 -13 -21 -9 -16
10 18 66 41 66 10 0 18 -3 18 -6z M2446 1002 c-3 -5 6 -25 19 -45 14 -20 25
-41 25 -46 0 -23 -21 -9 -46 29 -27 40 -35 46 -47 34 -6 -6 23 -54 49 -81 19
-19 41 -16 58 9 14 19 14 24 -2 50 -9 15 -20 28 -24 28 -4 0 -8 7 -8 15 0 16
-15 20 -24 7z M1691 954 c-11 -12 -27 -34 -36 -47 -16 -24 -15 -25 16 -41 18
-9 35 -14 38 -10 5 5 -10 18 -34 28 -18 8 19 26 40 19 17 -5 18 -4 7 10 -19
22 -6 40 19 27 14 -8 19 -7 19 2 0 7 -11 18 -24 24 -21 10 -27 8 -45 -12z
M2360 952 c0 -5 -13 -15 -30 -22 -33 -14 -41 -33 -11 -28 12 2 30 -11 50 -36
26 -33 32 -36 37 -21 4 11 1 22 -7 29 -32 25 -42 45 -30 60 8 10 9 16 1 21 -5
3 -10 2 -10 -3z M2130 890 c0 -7 3 -10 7 -7 3 4 3 10 0 14 -4 3 -7 0 -7 -7z
M2175 891 c-3 -6 -11 -9 -16 -6 -5 4 -9 1 -9 -4 0 -13 10 -14 30 -1 8 5 12 12
8 15 -3 4 -9 1 -13 -4z M2240 877 c-14 -6 -26 -12 -28 -13 -8 -5 63 -94 75
-94 17 0 16 8 -3 27 -10 11 -12 19 -5 26 7 7 16 4 29 -11 24 -27 32 -28 32 -3
0 11 -9 23 -20 26 -11 3 -20 13 -20 20 0 23 -32 34 -60 22z m35 -25 c0 -18
-20 -15 -23 4 -3 10 1 15 10 12 7 -3 13 -10 13 -16z M1850 862 c0 -5 -11 -22
-25 -38 -14 -16 -25 -33 -25 -39 0 -12 51 -37 59 -29 3 4 0 9 -6 11 -18 7 -16
43 2 43 8 0 15 -5 15 -11 0 -5 5 -7 11 -4 7 5 5 13 -6 25 -20 22 -2 38 22 19
13 -11 15 -11 12 6 -4 20 -59 36 -59 17z M2110 858 c0 -4 4 -8 9 -8 6 0 12 4
15 8 3 5 -1 9 -9 9 -8 0 -15 -4 -15 -9z M2090 845 c0 -3 2 -5 5 -5 3 0 5 2 5
5 0 3 -2 5 -5 5 -3 0 -5 -2 -5 -5z M2176 841 c-8 -12 35 -92 52 -98 23 -9 25
5 3 35 -12 17 -21 33 -21 37 0 13 -29 35 -34 26z M1931 818 c16 -11 15 -15 -6
-49 -22 -34 -23 -49 -3 -49 4 0 8 7 8 15 0 8 3 15 8 15 4 0 12 10 17 23 6 13
17 21 28 19 9 -2 17 2 17 8 0 5 -7 10 -15 10 -8 0 -15 5 -15 10 0 6 -12 10
-27 9 -24 0 -26 -2 -12 -11z M2130 785 c0 -43 -14 -45 -29 -5 -6 18 -17 30
-27 30 -14 0 -15 -3 -6 -12 7 -7 12 -20 12 -30 0 -10 5 -18 10 -18 6 0 10 -9
10 -20 0 -20 25 -38 36 -27 12 12 17 117 5 117 -6 0 -11 -15 -11 -35z m0 -50
c0 -3 -2 -5 -5 -5 -3 0 -5 2 -5 5 0 3 2 5 5 5 3 0 5 -2 5 -5z M2360 800 c0 -7
3 -10 7 -7 3 4 3 10 0 14 -4 3 -7 0 -7 -7z M1760 795 c0 -3 2 -5 5 -5 3 0 5 2
5 5 0 3 -2 5 -5 5 -3 0 -5 -2 -5 -5z M2320 765 c0 -3 2 -5 5 -5 3 0 5 2 5 5 0
3 -2 5 -5 5 -3 0 -5 -2 -5 -5z M2098 633 c7 -3 16 -2 19 1 4 3 -2 6 -13 5 -11
0 -14 -3 -6 -6z M2042 547 c3 -69 6 -82 21 -85 15 -3 17 6 17 76 0 72 -2 80
-20 85 -20 5 -21 2 -18 -76z M2170 595 c0 -3 2 -5 5 -5 3 0 5 2 5 5 0 3 -2 5
-5 5 -3 0 -5 -2 -5 -5z M2100 585 c0 -3 2 -5 5 -5 3 0 5 2 5 5 0 3 -2 5 -5 5
-3 0 -5 -2 -5 -5z M1780 1956 c0 -8 61 -12 66 -4 3 4 -11 8 -30 8 -20 0 -36
-2 -36 -4z M1849 1922 c-40 -40 -41 -52 -3 -52 20 0 104 68 104 84 0 3 -14 6
-31 6 -22 0 -41 -11 -70 -38z M2085 1950 c-32 -13 -78 -67 -65 -75 18 -11 57
3 85 31 41 41 31 65 -20 44z m5 -45 c0 -3 -2 -5 -5 -5 -3 0 -5 2 -5 5 0 3 2 5
5 5 3 0 5 -2 5 -5z M2198 1953 c6 -2 18 -2 25 0 6 3 1 5 -13 5 -14 0 -19 -2
-12 -5z M2245 1950 c3 -5 8 -10 11 -10 3 0 2 5 -1 10 -3 6 -8 10 -11 10 -3 0
-2 -4 1 -10z M2314 1953 c-36 -7 -70 -49 -54 -68 19 -23 80 -19 113 9 54 46
25 76 -59 59z M1734 1928 l-19 -23 23 19 c21 18 27 26 19 26 -2 0 -12 -10 -23
-22z M1973 1943 c4 -3 10 -3 14 0 3 4 0 7 -7 7 -7 0 -10 -3 -7 -7z M2020 1940
c0 -5 5 -10 10 -10 6 0 10 5 10 10 0 6 -4 10 -10 10 -5 0 -10 -4 -10 -10z
M2149 1933 c-13 -17 -13 -17 6 -3 11 8 22 16 24 17 2 2 0 3 -6 3 -6 0 -17 -8
-24 -17z M1950 1925 c0 -3 2 -5 5 -5 3 0 5 2 5 5 0 3 -2 5 -5 5 -3 0 -5 -2 -5
-5z M1810 1915 c0 -3 2 -5 5 -5 3 0 5 2 5 5 0 3 -2 5 -5 5 -3 0 -5 -2 -5 -5z
M1995 1910 c-3 -6 1 -7 9 -4 18 7 21 14 7 14 -6 0 -13 -4 -16 -10z M1930 1905
c0 -3 2 -5 5 -5 3 0 5 2 5 5 0 3 -2 5 -5 5 -3 0 -5 -2 -5 -5z M1733 1893 c4
-3 10 -3 14 0 3 4 0 7 -7 7 -7 0 -10 -3 -7 -7z M1780 1895 c0 -3 2 -5 5 -5 3
0 5 2 5 5 0 3 -2 5 -5 5 -3 0 -5 -2 -5 -5z M2120 1895 c0 -3 2 -5 5 -5 3 0 5
2 5 5 0 3 -2 5 -5 5 -3 0 -5 -2 -5 -5z M2200 1895 c0 -3 2 -5 5 -5 3 0 5 2 5
5 0 3 -2 5 -5 5 -3 0 -5 -2 -5 -5z M1910 1880 c0 -5 14 -10 32 -10 36 0 35 4
-4 14 -17 4 -28 2 -28 -4z M1990 1515 c0 -3 2 -5 5 -5 3 0 5 2 5 5 0 3 -2 5
-5 5 -3 0 -5 -2 -5 -5z M2354 2684 c-18 -14 -18 -15 4 -4 12 6 22 13 22 15 0
8 -5 6 -26 -11z M2390 2630 c0 -7 3 -10 7 -7 3 4 3 10 0 14 -4 3 -7 0 -7 -7z
M2340 2585 c0 -3 2 -5 5 -5 3 0 5 2 5 5 0 3 -2 5 -5 5 -3 0 -5 -2 -5 -5z
M1490 2575 c0 -3 2 -5 5 -5 3 0 5 2 5 5 0 3 -2 5 -5 5 -3 0 -5 -2 -5 -5z
M1803 2543 c4 -3 10 -3 14 0 3 4 0 7 -7 7 -7 0 -10 -3 -7 -7z M1780 2525 c0
-3 2 -5 5 -5 3 0 5 2 5 5 0 3 -2 5 -5 5 -3 0 -5 -2 -5 -5z M573 2447 c-4 -6
-6 -26 -5 -43 2 -26 -6 -41 -40 -77 -24 -24 -54 -47 -66 -51 -12 -4 -22 -11
-22 -16 0 -5 -9 -7 -20 -5 -11 2 -18 0 -15 -5 3 -4 20 -6 38 -4 25 3 28 2 12
-5 -11 -5 -32 -10 -47 -10 -32 -1 -39 -28 -11 -38 10 -4 32 -15 48 -26 l30
-19 -29 7 c-26 5 -27 4 -13 -10 9 -8 18 -15 22 -15 25 0 64 -75 66 -129 l1
-26 7 25 c7 23 8 23 14 5 3 -11 9 -37 13 -57 3 -21 11 -38 16 -38 6 0 7 7 4
16 -3 9 -6 57 -6 107 l0 92 -42 21 c-24 12 -63 31 -87 41 l-45 20 35 11 c19 6
55 14 80 17 71 10 74 14 78 110 1 47 6 85 10 85 4 0 15 -16 24 -35 9 -19 22
-35 28 -35 8 0 7 6 -2 18 -12 15 -12 16 2 5 9 -7 18 -11 21 -8 2 3 5 -2 5 -10
0 -8 -4 -12 -9 -9 -14 9 -9 -9 15 -44 l22 -34 95 6 95 6 -64 -58 -64 -58 14
-32 c8 -18 17 -32 21 -32 5 0 8 -6 8 -14 0 -14 11 -15 63 -7 4 0 2 11 -5 24
-16 29 -18 68 -3 87 6 8 11 22 10 30 -1 8 10 27 24 43 l25 27 -53 0 c-33 0
-50 4 -46 10 4 6 11 8 16 5 5 -4 9 -1 9 4 0 7 -13 9 -33 6 -24 -4 -41 0 -59
15 -15 11 -32 20 -38 20 -7 0 -10 7 -6 17 4 10 4 14 0 10 -4 -4 -12 0 -18 8
-6 9 -24 18 -40 21 -36 6 -48 13 -41 24 3 4 -4 10 -15 13 -11 3 -23 0 -27 -6z
m67 -42 c0 -3 -2 -5 -5 -5 -3 0 -5 2 -5 5 0 3 2 5 5 5 3 0 5 -2 5 -5z m50 -10
c0 -3 -2 -5 -5 -5 -3 0 -5 2 -5 5 0 3 2 5 5 5 3 0 5 -2 5 -5z m-120 -50 c0 -3
-2 -5 -5 -5 -3 0 -5 2 -5 5 0 3 2 5 5 5 3 0 5 -2 5 -5z m237 -42 c-4 -3 -10
-3 -14 0 -3 4 0 7 7 7 7 0 10 -3 7 -7z m-237 -38 c0 -3 -2 -5 -5 -5 -3 0 -5 2
-5 5 0 3 2 5 5 5 3 0 5 -2 5 -5z m-73 -22 c-4 -3 -10 -3 -14 0 -3 4 0 7 7 7 7
0 10 -3 7 -7z m372 -5 c-2 -2 -17 -14 -34 -28 l-30 -25 24 28 c14 15 29 27 34
27 6 0 8 -1 6 -2z m1 -23 c0 -3 -2 -5 -5 -5 -3 0 -5 2 -5 5 0 3 2 5 5 5 3 0 5
-2 5 -5z m-370 -70 c0 -3 -2 -5 -5 -5 -3 0 -5 2 -5 5 0 3 2 5 5 5 3 0 5 -2 5
-5z m320 -20 c0 -3 -2 -5 -5 -5 -3 0 -5 2 -5 5 0 3 2 5 5 5 3 0 5 -2 5 -5z
m40 -20 c0 -3 -2 -5 -5 -5 -3 0 -5 2 -5 5 0 3 2 5 5 5 3 0 5 -2 5 -5z M630
2435 c0 -3 2 -5 5 -5 3 0 5 2 5 5 0 3 -2 5 -5 5 -3 0 -5 -2 -5 -5z M1990 2425
c0 -3 2 -5 5 -5 3 0 5 2 5 5 0 3 -2 5 -5 5 -3 0 -5 -2 -5 -5z M930 2305 c0 -3
2 -5 5 -5 3 0 5 2 5 5 0 3 -2 5 -5 5 -3 0 -5 -2 -5 -5z M1780 2295 c0 -3 2 -5
5 -5 3 0 5 2 5 5 0 3 -2 5 -5 5 -3 0 -5 -2 -5 -5z M2100 2285 c0 -3 2 -5 5 -5
3 0 5 2 5 5 0 3 -2 5 -5 5 -3 0 -5 -2 -5 -5z M1384 2267 c-3 -9 -3 -21 1 -28
4 -6 1 -16 -6 -21 -11 -8 -10 -9 4 -4 12 4 17 0 17 -15 0 -13 4 -18 12 -13 7
4 8 3 4 -4 -9 -14 12 -55 24 -47 4 3 6 -5 2 -17 -4 -17 -2 -20 11 -15 12 4 17
1 17 -11 0 -9 9 -23 20 -30 16 -10 20 -10 20 0 0 9 3 9 9 -2 6 -8 7 -18 4 -24
-3 -5 -1 -6 5 -2 7 4 12 2 12 -4 0 -6 7 -4 17 5 13 14 14 18 3 25 -8 5 -18 6
-22 4 -4 -3 -8 2 -8 11 0 9 -4 14 -9 11 -12 -8 -34 20 -27 33 4 5 1 13 -5 17
-8 5 -10 2 -4 -7 4 -8 -6 2 -23 21 -31 34 -42 57 -22 45 13 -8 13 -3 -5 32
-22 43 -43 60 -51 40z m16 -2 c0 -3 -2 -5 -5 -5 -3 0 -5 2 -5 5 0 3 2 5 5 5 3
0 5 -2 5 -5z m17 -22 c-4 -3 -10 -3 -14 0 -3 4 0 7 7 7 7 0 10 -3 7 -7z M2263
2273 c4 -3 10 -3 14 0 3 4 0 7 -7 7 -7 0 -10 -3 -7 -7z M2056 2253 c-6 -14 -5
-15 5 -6 7 7 10 15 7 18 -3 3 -9 -2 -12 -12z M1870 2255 c0 -3 2 -5 5 -5 3 0
5 2 5 5 0 3 -2 5 -5 5 -3 0 -5 -2 -5 -5z M1890 2255 c0 -3 2 -5 5 -5 3 0 5 2
5 5 0 3 -2 5 -5 5 -3 0 -5 -2 -5 -5z M2030 2255 c0 -3 2 -5 5 -5 3 0 5 2 5 5
0 3 -2 5 -5 5 -3 0 -5 -2 -5 -5z M2090 2255 c0 -3 2 -5 5 -5 3 0 5 2 5 5 0 3
-2 5 -5 5 -3 0 -5 -2 -5 -5z M370 2185 c0 -3 2 -5 5 -5 3 0 5 2 5 5 0 3 -2 5
-5 5 -3 0 -5 -2 -5 -5z M1380 2185 c0 -3 2 -5 5 -5 3 0 5 2 5 5 0 3 -2 5 -5 5
-3 0 -5 -2 -5 -5z M661 2053 c-68 -89 -98 -139 -67 -114 21 18 27 -9 7 -34
-16 -20 -16 -20 6 -2 12 11 19 25 16 33 -3 9 2 14 15 14 11 0 23 7 26 16 3 8
10 12 16 9 6 -3 17 1 26 10 17 17 76 12 103 -9 11 -8 13 -8 7 2 -10 17 18 26
43 13 18 -10 20 -9 18 18 -1 16 -6 29 -11 28 -5 -1 -11 4 -13 11 -3 8 1 10 13
5 11 -4 15 -2 12 7 -5 16 -48 21 -48 6 0 -6 7 -20 15 -30 8 -11 15 -23 15 -27
0 -7 -145 53 -157 65 -11 11 -21 6 -42 -21z m209 12 c0 -3 -2 -5 -5 -5 -3 0
-5 2 -5 5 0 3 2 5 5 5 3 0 5 -2 5 -5z m-150 -20 c0 -3 -2 -5 -5 -5 -3 0 -5 2
-5 5 0 3 2 5 5 5 3 0 5 -2 5 -5z m50 -20 c0 -3 -2 -5 -5 -5 -3 0 -5 2 -5 5 0
3 2 5 5 5 3 0 5 -2 5 -5z m35 -16 c11 -17 -1 -21 -15 -4 -8 9 -8 15 -2 15 6 0
14 -5 17 -11z m-165 -24 c0 -3 -2 -5 -5 -5 -3 0 -5 2 -5 5 0 3 2 5 5 5 3 0 5
-2 5 -5z m-10 -19 c0 -3 -5 -8 -12 -12 -7 -4 -8 -3 -4 4 7 12 16 16 16 8z
M1600 1955 c0 -3 2 -5 5 -5 3 0 5 2 5 5 0 3 -2 5 -5 5 -3 0 -5 -2 -5 -5z"/>
</g>
</svg>
